<svg version="1.0" xmlns="http://www.w3.org/2000/svg"
 width="563.000000pt" height="772.000000pt" viewBox="0 0 563.000000 772.000000"
 preserveAspectRatio="xMidYMid meet">

<g transform="translate(0.000000,772.000000) scale(0.100000,-0.100000)"
fill="#000000" stroke="none">
<path d="M796 7677 c-62 -65 -91 -129 -125 -273 -35 -148 -37 -203 -21 -550
10 -227 26 -340 76 -534 77 -295 137 -452 254 -658 76 -134 97 -164 300 -437
252 -338 300 -405 280 -393 -15 10 -25 10 -38 2 -22 -14 -29 -50 -31 -146 -1
-59 -4 -78 -15 -78 -7 0 -16 -8 -18 -18 -7 -25 18 -230 31 -265 13 -33 127
-200 183 -268 l38 -47 -30 -10 c-19 -7 -30 -18 -30 -29 1 -57 22 -165 39 -207
l21 -48 -22 -17 c-20 -17 -20 -21 -9 -50 8 -17 37 -53 66 -79 38 -35 54 -58
59 -85 10 -52 65 -90 161 -112 59 -13 79 -22 100 -46 14 -17 25 -36 25 -42 0
-7 21 -43 46 -80 l47 -68 -56 -167 c-59 -177 -72 -243 -83 -412 -11 -182 32
-392 109 -530 67 -120 156 -248 188 -271 19 -13 68 -51 109 -84 75 -61 176
-125 321 -203 77 -42 156 -65 265 -77 51 -6 62 -4 68 10 6 17 -28 36 -90 51
-67 15 -278 129 -411 221 -196 136 -243 177 -301 263 -71 106 -97 162 -126
275 -23 87 -26 120 -26 261 0 103 6 192 15 245 17 92 82 291 151 467 25 62 42
117 39 122 -9 15 -31 12 -45 -5 -19 -23 -30 -18 -30 13 0 117 -102 524 -193
767 -24 66 -52 145 -62 175 -10 30 -35 91 -57 134 -21 44 -38 85 -38 92 0 7
21 31 48 54 26 23 76 73 110 112 35 39 89 90 120 113 32 23 98 78 147 121 107
94 144 124 157 124 5 0 -5 -12 -24 -27 -63 -50 -159 -148 -181 -183 -11 -19
-39 -59 -60 -89 -22 -30 -46 -78 -54 -110 -14 -53 -14 -56 6 -72 16 -13 19
-24 15 -47 -6 -31 5 -46 29 -37 8 4 37 38 64 78 47 67 184 227 271 317 66 69
105 120 107 144 5 46 24 68 53 62 96 -20 179 -26 345 -26 205 0 221 3 304 62
43 32 49 33 132 32 47 -1 97 -6 110 -11 23 -9 23 -10 -15 -32 -22 -13 -51 -24
-66 -25 -15 -1 -33 -7 -40 -14 -23 -23 14 -43 95 -52 87 -10 207 -61 246 -104
17 -18 34 -26 59 -26 35 0 35 0 27 -37 -3 -21 -12 -71 -19 -110 -7 -40 -15
-76 -19 -80 -4 -3 -18 4 -31 16 -39 37 -104 39 -170 7 -63 -31 -148 -118 -167
-171 -7 -19 -16 -35 -19 -35 -4 0 -12 29 -18 64 -14 76 -16 168 -3 147 7 -12
25 -3 84 43 42 32 78 64 81 73 24 62 -55 34 -131 -46 -40 -44 -53 -50 -53 -27
0 26 -17 26 -34 1 -15 -23 -16 -39 -6 -148 10 -102 20 -146 61 -268 27 -80 49
-153 49 -161 0 -36 62 -98 155 -156 91 -57 125 -67 125 -37 0 7 -36 43 -80 80
-72 61 -117 111 -108 120 2 2 39 -5 83 -16 130 -31 181 -23 248 39 26 25 27
25 42 6 24 -31 18 -49 -43 -123 -39 -48 -87 -91 -151 -134 -157 -107 -261
-226 -302 -344 -17 -51 -37 -149 -68 -336 -14 -81 -61 -203 -100 -261 -16 -23
-79 -81 -139 -129 -136 -108 -239 -218 -248 -264 -15 -78 10 -130 158 -326
121 -160 249 -352 289 -432 31 -64 32 -68 26 -162 -5 -68 -12 -105 -26 -128
-19 -33 -19 -33 2 -52 12 -11 47 -35 77 -53 84 -50 152 -111 460 -415 327
-321 378 -360 614 -466 181 -81 238 -93 374 -80 111 10 152 27 288 117 108 71
170 159 219 311 42 130 52 178 65 324 12 140 -9 395 -45 544 -8 33 -28 119
-45 190 -16 72 -38 147 -47 168 -15 35 -15 38 2 57 10 11 23 20 28 20 6 0 53
26 105 57 98 59 132 96 132 144 0 58 -41 219 -74 296 -38 87 -43 116 -23 149
72 124 80 161 53 262 -30 112 -184 340 -296 436 -75 65 -119 117 -169 199 -88
146 -190 221 -401 292 -88 30 -288 72 -453 94 -210 29 -304 215 -264 523 10
71 24 132 36 157 29 55 28 128 -2 172 -12 19 -71 71 -131 116 -99 74 -114 82
-165 88 -137 14 -141 15 -146 38 -4 13 11 67 36 132 23 61 53 157 66 215 45
191 142 466 212 605 58 114 77 142 156 224 88 92 350 316 511 438 44 34 140
124 213 200 155 163 184 212 190 321 4 95 -11 122 -72 122 -52 0 -232 -33
-302 -55 -27 -9 -104 -30 -170 -46 -263 -66 -446 -132 -647 -236 -141 -72
-234 -133 -349 -230 -52 -43 -111 -91 -131 -107 -44 -33 -152 -196 -186 -280
-13 -32 -35 -127 -49 -210 -20 -126 -25 -189 -26 -383 -1 -128 -3 -233 -5
-233 -1 0 -11 20 -22 45 -18 43 -27 50 -60 45 -19 -2 -39 -30 -40 -55 l-1 -20
-8 20 c-5 11 -12 43 -16 72 -3 28 -12 59 -19 69 -18 24 -58 12 -109 -35 -23
-21 -52 -43 -65 -50 -12 -7 -37 -37 -54 -68 -27 -48 -33 -53 -43 -39 -29 39
-85 2 -85 -56 0 -34 -12 -36 -25 -5 -14 31 -60 35 -76 6 -6 -12 -14 -71 -17
-131 -3 -59 -8 -108 -11 -108 -4 0 -12 5 -18 11 -6 6 -23 9 -39 7 -27 -3 -28
-6 -41 -88 -7 -47 -12 -141 -13 -211 l0 -125 -35 -34 -34 -33 -11 29 c-28 72
-164 681 -190 854 -14 84 -90 348 -137 470 -55 143 -110 257 -218 450 -171
308 -245 431 -371 621 -103 153 -142 203 -232 292 l-109 107 -53 0 c-50 0 -56
-3 -94 -43z m142 -70 c43 -24 339 -455 455 -662 28 -49 58 -102 68 -116 40
-58 258 -479 272 -525 8 -27 26 -77 41 -112 77 -182 143 -421 191 -690 9 -45
24 -115 35 -155 10 -39 24 -103 31 -142 13 -83 62 -282 84 -344 27 -77 24 -83
-100 -209 -63 -64 -116 -114 -118 -111 -45 54 -290 387 -310 421 -44 77 -211
312 -319 451 -84 107 -166 239 -251 402 -74 142 -165 400 -187 530 -6 39 -20
104 -30 145 -26 103 -38 228 -46 481 -6 179 -4 229 9 290 9 41 23 115 32 164
21 122 32 151 62 175 29 23 49 25 81 7z m3950 -259 c4 -34 -24 -90 -103 -203
-75 -107 -120 -148 -535 -479 -296 -235 -437 -431 -540 -751 -23 -71 -55 -164
-70 -205 -15 -41 -58 -169 -95 -285 -66 -206 -85 -245 -122 -245 -24 0 -10 63
34 150 21 41 38 80 38 86 0 6 5 18 12 25 15 19 103 256 170 458 62 186 86 239
187 401 119 191 210 275 629 584 86 63 122 112 176 237 18 43 48 91 67 110 37
36 45 69 17 69 -25 0 -123 -47 -217 -105 -93 -56 -322 -167 -480 -231 -321
-131 -541 -294 -645 -478 -49 -87 -107 -294 -117 -421 -7 -93 -24 -205 -32
-205 -3 0 -14 7 -24 17 -16 15 -20 15 -35 0 -12 -10 -28 -13 -47 -10 l-28 6 4
201 c5 201 5 201 42 311 62 180 104 252 210 351 111 106 182 161 261 204 33
18 89 50 125 71 160 94 471 204 919 326 69 18 127 36 130 39 3 3 19 4 36 2 24
-2 31 -8 33 -30z m-274 -220 c-4 -13 -21 -45 -38 -73 -17 -27 -37 -61 -44 -75
-7 -14 -50 -51 -96 -82 -45 -31 -177 -136 -293 -233 -206 -171 -213 -179 -276
-278 -147 -234 -166 -279 -307 -702 -35 -104 -51 -140 -63 -139 -9 1 -13 -4
-10 -13 3 -7 -1 -21 -10 -31 -8 -9 -28 -41 -44 -70 l-30 -53 -17 83 c-9 46
-25 110 -35 142 -13 42 -16 70 -10 95 4 20 15 101 24 181 26 232 46 363 60
397 8 18 21 59 29 93 27 104 89 203 171 273 40 34 94 73 121 86 27 13 94 51
149 84 55 33 138 77 185 98 47 20 133 59 191 87 58 28 141 65 184 82 42 17 94
39 114 50 47 25 54 25 45 -2z m-834 -2558 c0 -11 -40 -34 -47 -26 -3 3 -3 12
0 21 7 16 47 21 47 5z m41 -168 c-26 -49 -113 -52 -166 -6 l-30 26 30 -18 c42
-25 107 -24 142 2 32 25 39 24 24 -4z m98 -137 c1 -65 -3 -77 -34 -92 -19 -10
-127 -3 -197 12 -35 8 -76 66 -85 120 l-6 37 42 -22 c89 -45 172 -36 236 26
l30 29 6 -25 c4 -14 7 -52 8 -85z m271 -240 c280 -32 408 -55 512 -91 180 -62
218 -85 291 -171 36 -43 64 -79 63 -81 -2 -2 -34 11 -71 27 -78 35 -105 39
-105 13 0 -12 22 -28 68 -49 123 -59 373 -295 479 -453 16 -25 42 -80 56 -122
l26 -78 -26 -77 c-20 -58 -38 -90 -72 -126 -181 -194 -631 -462 -935 -557
-162 -51 -246 -63 -334 -50 -144 23 -297 71 -434 135 -75 36 -140 65 -143 65
-4 0 -18 9 -31 19 -14 11 -68 34 -120 51 -91 31 -110 44 -79 56 17 7 21 54 5
54 -6 0 -51 -14 -101 -31 -116 -41 -126 -57 -102 -154 23 -93 93 -167 93 -97
0 15 -7 51 -14 80 l-14 53 89 -82 c110 -100 128 -122 180 -212 23 -40 68 -115
99 -167 32 -52 71 -122 88 -155 28 -56 75 -122 195 -276 33 -42 47 -72 57
-120 10 -48 11 -64 2 -67 -19 -6 -15 -20 24 -84 45 -74 92 -120 217 -214 138
-104 215 -147 347 -194 111 -40 120 -42 265 -47 l150 -5 110 37 c153 51 194
76 291 178 94 99 98 97 65 -33 -40 -157 -83 -242 -170 -334 -119 -125 -280
-165 -466 -117 -153 40 -261 90 -404 188 -94 65 -362 306 -606 546 -78 77
-154 142 -190 162 -101 58 -99 56 -91 126 3 34 11 68 18 76 15 18 12 79 -6
129 -18 53 -124 238 -174 306 -65 88 -223 330 -248 380 -13 26 -24 62 -24 79
0 35 20 56 259 278 103 95 115 111 156 195 31 65 48 117 59 182 9 51 20 104
26 118 5 15 10 40 10 56 0 38 36 151 73 229 38 81 86 134 207 227 61 47 116
100 153 149 42 54 64 74 75 71 10 -3 78 -12 152 -21z m1274 -1377 c41 -90 73
-184 82 -237 6 -38 4 -44 -29 -73 -20 -18 -63 -48 -96 -66 l-60 -33 -38 71
c-25 45 -44 70 -55 70 -23 0 -23 -19 4 -102 17 -52 20 -73 12 -86 -14 -22
-171 -105 -248 -132 -85 -29 -111 -26 -159 15 -22 19 -44 35 -48 35 -13 0 -18
-43 -8 -63 16 -28 -6 -45 -87 -69 -113 -33 -107 -33 -158 11 -50 43 -78 50
-110 26 -24 -18 -71 -19 -115 -4 -23 8 -39 25 -56 60 -14 26 -25 55 -25 63 0
17 70 29 149 27 44 -2 56 2 68 18 8 12 23 21 33 21 11 0 53 14 95 30 92 36
115 37 145 6 l22 -25 24 47 c20 40 37 55 111 100 48 28 115 69 148 91 52 33
63 37 88 28 32 -11 47 1 47 36 0 10 24 40 53 66 88 81 160 141 170 141 4 0 23
-33 41 -72z m-1852 -351 c4 -7 8 -25 8 -40 l0 -29 58 7 59 7 71 -82 72 -81 1
-72 c1 -139 12 -201 44 -242 86 -109 107 -143 114 -196 4 -30 15 -68 24 -86 9
-18 17 -37 17 -43 0 -28 -204 201 -278 313 -21 32 -23 41 -14 62 7 14 23 30
37 35 36 14 31 30 -11 30 -81 0 -116 34 -193 188 -23 45 -45 82 -51 82 -19 0
-120 147 -120 176 0 19 -9 36 -27 51 -21 17 -2 11 77 -22 57 -25 108 -51 112
-58z m438 -139 c74 -16 140 -34 146 -39 7 -5 18 -24 25 -42 23 -59 60 -99 117
-125 48 -22 63 -24 123 -18 64 6 73 4 125 -24 31 -16 65 -30 76 -30 29 0 56
-17 144 -91 95 -81 164 -153 164 -172 0 -81 -362 -212 -428 -155 -27 24 -63
41 -117 54 -87 22 -125 40 -163 76 -51 49 -120 90 -153 92 -18 1 -49 19 -84
50 -54 46 -56 50 -54 94 1 48 -8 179 -17 241 -4 21 -22 51 -52 84 -47 50 -47
50 -17 43 17 -5 91 -21 165 -38z m1258 -147 c7 -21 12 -55 12 -76 0 -21 14
-90 31 -154 29 -107 31 -130 33 -286 l1 -170 -58 -117 c-65 -130 -91 -159
-202 -221 -88 -49 -139 -63 -277 -77 -112 -12 -115 -12 -247 19 -138 32 -258
82 -384 158 -66 40 -200 159 -231 206 -15 23 -44 125 -46 161 0 4 35 -23 78
-61 101 -91 190 -163 202 -163 5 0 30 -13 56 -29 25 -16 110 -51 189 -76 l144
-47 153 4 153 4 100 44 c88 39 109 54 180 125 108 108 130 154 129 265 -1 95
-10 149 -48 294 -33 125 -44 230 -26 251 12 14 15 14 30 0 9 -8 22 -33 28 -54z
m-141 -50 c5 -34 2 -42 -13 -47 -32 -12 -64 -46 -64 -70 0 -55 31 -71 65 -34
14 15 21 17 32 9 21 -18 15 -38 -25 -77 -21 -20 -52 -54 -70 -75 l-33 -39 -22
27 c-46 58 -57 87 -57 162 0 77 -10 98 -56 109 -39 10 -28 21 44 45 37 12 73
24 80 27 7 2 12 -5 12 -19 0 -13 4 -30 9 -37 12 -20 45 -11 50 13 14 76 38 79
48 6z m-330 -71 c30 -18 63 -60 46 -60 -12 1 -99 79 -88 80 6 0 24 -9 42 -20z
m379 -257 c3 -16 7 -32 8 -38 2 -5 -1 -23 -6 -40 -5 -19 -4 -45 3 -72 10 -38
9 -46 -17 -95 -27 -49 -32 -53 -68 -56 -47 -4 -93 14 -101 39 -4 10 -15 19
-25 19 -16 0 -19 -9 -22 -62 l-3 -61 -44 -24 c-37 -19 -59 -23 -136 -23 -85 0
-95 2 -136 30 -25 16 -57 43 -72 60 -15 16 -31 30 -36 30 -5 0 -18 -17 -28
-37 -41 -85 -151 -44 -222 82 -35 61 -63 71 -96 35 -26 -29 -44 -25 -60 13
-17 42 -41 155 -33 162 13 14 80 -31 93 -62 11 -26 20 -33 42 -33 16 0 44 -9
63 -20 54 -31 72 -38 111 -45 20 -3 54 -19 75 -36 37 -30 42 -31 109 -26 79 6
344 87 370 114 9 8 14 22 11 29 -6 16 23 37 76 53 20 7 56 30 80 51 24 22 46
39 50 40 4 0 10 -12 14 -27z m-934 -344 l33 -30 -45 27 c-56 33 -57 34 -37 34
9 0 31 -14 49 -31z m833 -15 c-29 -23 -145 -76 -158 -71 -11 3 150 86 168 86
6 0 1 -7 -10 -15z m-706 -39 c25 -7 47 -17 49 -23 6 -19 -18 -13 -83 18 -33
17 -49 27 -35 23 14 -4 45 -12 69 -18z m231 -44 l45 -21 -60 0 c-79 0 -140 17
-126 34 16 19 88 12 141 -13z m163 -18 c-13 -2 -33 -2 -45 0 -13 2 -3 4 22 4
25 0 35 -2 23 -4z"/>
<path d="M976 7291 c-3 -4 -1 -75 5 -157 23 -341 126 -766 259 -1079 60 -142
93 -204 175 -335 39 -63 91 -149 115 -190 24 -41 60 -100 80 -130 78 -114 219
-350 288 -481 67 -128 104 -180 118 -166 9 9 -23 147 -61 262 -35 109 -50 185
-36 185 24 0 12 66 -65 358 -93 350 -121 441 -165 540 -77 170 -249 573 -249
582 0 6 -18 30 -40 54 -22 24 -40 49 -40 56 0 11 -71 131 -138 233 -14 21 -65
78 -114 128 -48 50 -88 98 -88 108 0 29 -32 52 -44 32z m164 -293 c41 -55 104
-141 140 -192 36 -50 75 -95 86 -100 13 -6 36 -50 68 -130 27 -66 89 -207 137
-313 100 -219 130 -303 200 -563 92 -347 104 -400 92 -408 -7 -4 -13 -33 -15
-65 l-3 -57 -75 122 c-41 67 -95 152 -119 188 -73 107 -208 325 -235 378 -32
64 -127 303 -176 447 -93 269 -147 482 -170 665 -6 52 -14 103 -16 113 -11 36
13 12 86 -85z"/>
<path d="M3994 3342 c8 -15 37 -49 65 -75 49 -46 51 -47 115 -47 63 0 92 -12
60 -24 -36 -14 -99 -4 -164 24 -83 36 -93 37 -85 8 17 -58 80 -86 215 -94 74
-5 89 -3 117 15 18 11 39 31 48 45 15 23 15 27 -1 51 -24 36 -60 52 -135 60
-35 4 -97 20 -137 36 -41 16 -82 29 -93 29 -18 0 -18 -2 -5 -28z"/>
<path d="M2558 4422 c-86 -44 -185 -134 -221 -200 -18 -33 -30 -73 -33 -114
-6 -55 -4 -65 14 -81 24 -22 23 -23 52 73 43 145 61 167 213 267 53 36 97 68
97 73 0 4 -12 10 -26 13 -18 3 -49 -7 -96 -31z"/>
<path d="M2774 4365 c-131 -35 -185 -73 -276 -192 -42 -55 -90 -186 -102 -278
-10 -69 4 -86 75 -89 29 -2 85 -15 122 -29 149 -59 346 -13 435 101 46 59 93
157 86 177 -4 10 -31 54 -61 98 -29 43 -53 80 -53 83 0 2 7 1 15 -2 8 -3 19
-3 25 1 28 17 -73 117 -138 135 -47 13 -65 12 -128 -5z m35 -151 c-29 -15 -48
-2 -30 20 10 12 18 13 34 5 20 -11 20 -12 -4 -25z m90 -64 c0 -9 -6 -4 -14 10
-8 14 -14 34 -14 45 1 15 4 13 14 -10 8 -16 14 -37 14 -45z m-194 -78 c14 -8
16 -11 5 -12 -21 0 -58 27 -71 53 -11 20 -9 19 17 -4 16 -15 38 -31 49 -37z
m155 3 c-7 -8 -18 -15 -24 -15 -6 0 -2 7 8 15 25 19 32 19 16 0z m-268 -31
c56 -50 112 -74 179 -74 67 0 107 15 173 65 38 30 50 35 57 24 40 -64 -50
-183 -166 -220 -65 -20 -161 -16 -244 10 l-74 24 7 81 c7 85 15 126 23 126 3
0 24 -16 45 -36z"/>
</g>
</svg>
