<?xml version="1.0" standalone="no"?>
<!DOCTYPE svg PUBLIC "-//W3C//DTD SVG 20010904//EN"
 "http://www.w3.org/TR/2001/REC-SVG-20010904/DTD/svg10.dtd">
<svg version="1.0" xmlns="http://www.w3.org/2000/svg"
 width="259.000000pt" height="330.000000pt" viewBox="0 0 259.000000 330.000000"
 preserveAspectRatio="xMidYMid meet">

<g transform="translate(0.000000,330.000000) scale(0.100000,-0.100000)"
fill="#000000" stroke="none">
<path d="M1172 2949 c-85 -14 -168 -81 -216 -176 -9 -19 -37 -44 -72 -64 -75
-42 -236 -172 -299 -240 -105 -112 -204 -272 -226 -365 -6 -27 -18 -68 -25
-92 -20 -60 -17 -145 6 -234 l20 -76 -25 -71 c-14 -39 -25 -81 -25 -93 1 -20
4 -17 24 15 40 66 152 167 184 167 5 0 12 -26 15 -57 4 -51 0 -67 -29 -131
-18 -40 -42 -86 -54 -102 -12 -17 -17 -30 -12 -30 11 0 58 71 90 135 l20 40
26 -60 c15 -32 32 -80 38 -105 6 -25 21 -66 33 -92 l22 -48 -18 -122 c-10 -68
-23 -138 -28 -157 -6 -19 -9 -37 -7 -39 11 -10 56 199 56 256 0 19 4 31 10 27
5 -3 9 -20 8 -38 -1 -18 2 -76 7 -129 9 -109 -6 -232 -36 -311 -22 -55 -23
-60 -9 -52 6 4 7 -1 3 -11 -4 -11 -8 -13 -11 -6 -2 7 -7 10 -12 7 -5 -3 -20
-1 -35 5 -24 9 -27 15 -21 40 8 41 -1 38 -19 -7 -8 -20 -18 -33 -21 -30 -4 4
-1 20 6 37 7 17 10 33 7 37 -3 3 -14 -13 -23 -36 -17 -44 -29 -49 -59 -27 -19
13 -19 16 -3 65 9 28 12 51 8 51 -5 0 -14 -17 -20 -37 -6 -21 -13 -44 -15 -50
-6 -19 -72 15 -80 41 -6 21 -6 21 -15 1 -6 -16 -9 -17 -13 -5 -19 56 -20 56
-27 25 -6 -27 -8 -24 -30 45 -17 54 -23 99 -23 158 0 90 -5 93 -32 19 -10 -26
-19 -46 -21 -44 -9 8 39 163 67 219 31 59 33 69 33 175 1 103 0 110 -13 85
-10 -17 -16 -61 -17 -119 -1 -62 -6 -100 -16 -115 -15 -23 -51 -129 -61 -178
-13 -59 -18 -177 -9 -200 8 -22 10 -17 16 36 11 87 22 96 30 25 10 -87 22
-113 64 -141 36 -24 132 -72 182 -92 l25 -10 -34 -28 -34 -29 44 -58 c123
-162 363 -369 521 -449 58 -29 173 -71 208 -76 29 -4 41 23 61 139 7 40 16 73
19 73 3 0 16 -45 29 -99 29 -128 33 -133 91 -118 55 15 108 40 180 85 76 47
115 86 167 165 l45 69 -35 71 c-19 40 -51 92 -71 115 -29 36 -34 47 -26 63 13
23 -2 26 -20 4 -7 -8 -16 -15 -21 -15 -20 0 -7 39 24 76 96 113 130 189 164
363 15 77 31 141 34 141 12 0 40 -290 33 -338 -8 -55 -23 -91 -24 -54 0 34
-17 26 -24 -13 -8 -41 -26 -56 -27 -23 0 18 -5 13 -20 -20 -10 -24 -26 -53
-35 -65 l-16 -22 7 23 c3 12 4 22 2 22 -9 0 -76 -98 -71 -103 9 -9 124 59 130
77 4 10 21 34 40 52 57 58 78 183 54 319 -30 163 -32 217 -14 325 18 109 39
151 88 175 30 14 73 107 91 195 9 41 22 80 29 85 9 7 11 17 4 34 -11 32 -3 55
27 71 23 13 25 18 25 94 0 45 7 141 16 214 14 108 15 148 6 210 -25 175 -68
252 -177 318 -38 24 -83 46 -100 49 -101 20 -130 26 -221 40 -62 10 -119 14
-148 10 -44 -7 -48 -6 -92 35 -76 70 -155 95 -252 79z m176 -48 c48 -25 122
-102 104 -108 -9 -3 -1 -16 23 -37 49 -43 76 -123 76 -230 0 -45 -3 -96 -6
-112 -4 -18 8 -3 32 40 72 133 192 233 300 251 53 8 140 -16 182 -51 61 -51
96 -214 81 -377 -5 -47 -11 -95 -15 -108 -4 -12 -10 -74 -14 -137 -4 -74 -10
-117 -18 -119 -6 -2 -14 5 -18 16 -3 12 -10 21 -15 21 -6 0 -5 -11 0 -26 15
-38 12 -48 -7 -33 -15 12 -16 12 -9 -6 17 -41 19 -66 5 -60 -24 9 -59 73 -76
138 -13 51 -14 85 -7 192 14 218 11 284 -13 331 -26 50 -64 76 -109 76 -46 0
-134 -43 -186 -90 -54 -50 -94 -117 -76 -128 6 -4 14 -2 16 4 2 6 12 22 23 34
l19 23 -10 -27 c-5 -16 -6 -28 -1 -28 4 0 13 18 20 40 12 42 60 103 94 121 16
9 15 5 -8 -24 -31 -41 -59 -127 -47 -139 5 -5 24 0 43 11 19 11 51 23 72 26
20 4 37 12 37 17 0 15 -69 0 -109 -23 -18 -11 -35 -18 -37 -16 -2 2 9 30 26
63 75 151 169 162 220 26 23 -59 23 -124 1 -322 -7 -68 -11 -67 -35 10 l-15
45 6 -45 c3 -25 14 -65 24 -90 10 -25 25 -70 33 -101 9 -32 32 -80 51 -109 38
-57 41 -78 22 -160 -13 -52 -34 -84 -107 -159 l-24 -26 -9 37 c-7 31 -5 42 12
67 12 16 30 65 41 107 16 63 18 88 11 130 -13 69 -36 123 -66 154 -17 17 -27
42 -31 75 -4 39 -3 47 6 35 9 -12 10 -6 5 25 -8 50 -37 107 -81 162 -19 23
-34 44 -34 48 0 9 138 1 165 -10 15 -5 14 -3 -5 11 -30 22 -137 32 -169 15
-21 -12 -21 -13 18 -59 45 -55 56 -86 71 -202 19 -146 18 -142 1 -133 -40 18
-227 -15 -249 -44 -20 -27 13 -28 86 -4 68 23 113 26 143 10 41 -21 47 -68 50
-374 1 -164 0 -177 -44 -398 -57 -285 -96 -375 -211 -486 l-46 -45 -120 -4
c-74 -3 -138 0 -167 7 -50 13 -208 89 -257 124 -20 14 -27 16 -24 6 5 -17 152
-106 228 -139 43 -18 79 -24 165 -28 64 -2 127 0 149 7 22 6 41 9 42 8 1 -1 5
-37 9 -79 l7 -77 -35 -15 c-44 -18 -125 -34 -202 -40 -132 -9 -434 90 -613
201 -66 42 -73 49 -69 72 3 14 16 89 28 166 12 77 23 141 25 143 1 2 26 -22
55 -53 30 -31 63 -62 74 -67 11 -6 -7 17 -39 53 -33 35 -68 83 -78 107 -17 38
-34 177 -38 307 -1 23 -3 26 -9 12 -6 -18 -7 -18 -23 0 -9 10 -30 56 -47 103
-16 47 -39 110 -50 140 -20 53 -29 160 -13 160 4 0 8 -21 9 -48 1 -26 6 -58
12 -72 8 -20 9 -14 5 30 -8 75 7 110 46 110 25 0 33 -7 50 -41 l21 -40 -22 12
c-43 22 -63 -38 -35 -105 19 -45 38 -56 30 -17 -3 16 0 46 7 68 l14 38 5 -50
c4 -43 8 -50 25 -47 40 7 56 36 75 143 27 150 47 239 62 280 15 41 72 95 111
104 34 9 88 65 103 107 7 18 13 77 13 130 1 53 4 103 7 112 12 32 97 9 135
-38 25 -31 32 -15 9 22 -19 31 -84 72 -115 72 -19 0 -19 2 6 61 12 27 27 49
34 49 32 0 165 -129 165 -161 0 -4 5 -20 10 -35 18 -47 21 -20 3 32 -16 49
-70 110 -143 166 -29 22 -32 27 -18 33 23 9 84 -39 120 -94 15 -25 28 -40 28
-34 0 20 -59 97 -95 124 l-36 27 40 32 41 31 25 -26 c15 -14 38 -51 53 -83 23
-48 27 -70 27 -144 0 -87 9 -112 21 -62 17 68 -18 201 -73 272 -21 28 -23 36
-12 43 36 23 113 -11 143 -62 25 -42 33 -170 16 -246 -12 -56 -8 -75 12 -55
13 13 23 185 14 235 -10 51 -61 123 -98 136 -78 28 -160 1 -236 -77 -75 -77
-93 -135 -101 -319 l-6 -153 -30 -30 c-31 -31 -95 -52 -95 -31 0 6 7 14 15 17
8 4 15 10 15 16 0 5 -13 0 -30 -12 -36 -26 -118 -37 -149 -20 -37 19 -36 3 0
-20 27 -16 43 -19 78 -14 30 5 42 3 40 -4 -10 -28 -144 -127 -234 -171 -136
-68 -213 -115 -259 -159 l-39 -37 6 72 c7 85 39 159 96 221 21 23 35 42 31 42
-17 0 -98 -99 -121 -147 -13 -29 -27 -52 -31 -53 -20 -1 -11 134 11 186 33 75
127 161 196 179 17 4 24 10 17 12 -18 7 -101 -36 -144 -75 -44 -40 -48 -28
-14 43 44 93 86 129 232 202 73 37 132 68 130 70 -1 2 -50 -17 -107 -43 -57
-25 -111 -48 -119 -52 -25 -10 68 95 144 163 76 68 205 165 219 165 5 0 6 -8
2 -17 -4 -10 -9 -36 -11 -58 -4 -37 -3 -36 14 17 41 121 106 206 187 244 66
31 178 33 233 5z m258 -107 c-70 -22 -51 -27 35 -9 68 14 159 12 159 -4 0 -3
-24 -16 -53 -29 -50 -22 -134 -88 -124 -98 2 -3 20 9 38 26 53 48 110 72 166
68 l48 -3 -50 -19 c-62 -24 -183 -114 -217 -162 l-26 -35 -6 54 c-4 30 -23 87
-42 127 -19 39 -34 73 -34 76 0 8 68 22 110 22 l45 1 -49 -15z m-783 -871 c-8
-38 -17 -78 -19 -91 -6 -28 -34 -40 -149 -58 -121 -20 -180 -49 -254 -125 -34
-34 -61 -59 -61 -55 0 17 52 105 85 143 37 44 94 81 245 161 46 25 100 56 119
69 18 13 37 23 41 23 4 0 1 -30 -7 -67z m1076 6 c22 -23 41 -91 41 -143 0 -66
-23 -90 -34 -35 -3 17 -10 28 -15 24 -5 -3 -13 0 -17 6 -5 8 -3 9 6 4 10 -6
11 -4 6 11 -24 58 -34 154 -16 154 5 0 18 -9 29 -21z m-1192 -175 c-3 -3 -12
-4 -19 -1 -8 3 -5 6 6 6 11 1 17 -2 13 -5z m68 -3 c-6 -5 -26 -12 -45 -15
l-35 -6 30 14 c34 16 64 21 50 7z m1125 -45 c8 -25 8 -40 -1 -62 l-12 -29 -7
30 c-11 45 -11 107 -1 100 5 -3 15 -20 21 -39z m-1126 -26 c-7 -50 -31 -90
-54 -90 -8 0 -14 89 -8 118 1 7 60 30 66 26 2 -1 0 -25 -4 -54z m-136 -1048
c127 -98 372 -209 547 -247 44 -10 83 -20 87 -24 13 -12 -41 -284 -60 -303 -8
-8 -161 46 -230 81 -84 43 -238 150 -315 220 -55 49 -217 229 -217 240 0 5 13
14 29 21 16 6 38 21 48 32 23 25 62 18 111 -20z m1054 -150 c26 -34 53 -80 59
-102 11 -37 10 -45 -17 -98 -25 -49 -41 -65 -114 -114 -72 -49 -233 -128 -260
-128 -5 0 -11 15 -15 33 -4 17 -18 81 -32 140 -14 59 -22 118 -19 131 5 22 11
24 72 25 69 1 169 23 216 47 40 21 53 58 33 97 -19 39 -19 39 7 35 14 -2 41
-27 70 -66z"/>
<path d="M1276 2420 c3 -14 10 -29 15 -34 14 -16 10 6 -7 34 l-15 25 7 -25z"/>
<path d="M1305 2409 c9 -17 19 -29 21 -26 7 7 -18 57 -28 57 -5 0 -1 -14 7
-31z"/>
<path d="M1451 2408 c0 -9 -4 -25 -7 -35 -5 -17 -5 -17 6 0 6 10 9 25 7 35 -4
15 -5 15 -6 0z"/>
<path d="M1180 2390 c14 -10 27 -17 29 -14 6 5 -31 33 -44 33 -5 1 1 -8 15
-19z"/>
<path d="M1422 2385 c0 -16 2 -22 5 -12 2 9 2 23 0 30 -3 6 -5 -1 -5 -18z"/>
<path d="M1112 2385 c-11 -13 -9 -17 13 -25 34 -13 38 -13 29 2 -5 8 -2 9 9 5
22 -8 22 2 0 19 -23 17 -35 17 -51 -1z"/>
<path d="M1805 2310 c3 -5 11 -10 17 -10 6 0 27 -12 46 -26 l34 -27 -17 27
c-10 15 -26 31 -36 36 -23 13 -52 13 -44 0z"/>
<path d="M1082 2053 c-31 -15 -97 -81 -89 -89 2 -2 23 14 46 36 38 36 47 40
94 40 41 0 71 -9 133 -39 43 -21 94 -51 113 -65 44 -33 51 -33 51 4 0 18 -5
30 -13 30 -7 0 -35 14 -62 31 -58 37 -153 69 -204 69 -20 0 -51 -8 -69 -17z"/>
<path d="M1078 1888 c-43 -25 -48 -35 -37 -64 6 -18 21 -23 86 -32 184 -26
183 -26 183 -5 0 10 -15 33 -32 50 -38 36 -104 51 -161 35 -42 -12 -49 -2 -12
18 16 9 42 11 77 7 35 -4 48 -3 38 3 -27 17 -103 11 -142 -12z m168 -53 c4 -8
3 -23 -1 -32 -7 -16 -9 -15 -14 6 -8 32 -31 39 -38 12 -3 -12 -9 -21 -14 -21
-13 0 -21 20 -15 35 7 20 75 20 82 0z m-106 -10 c0 -8 -9 -15 -19 -15 -24 0
-36 16 -19 23 24 10 38 7 38 -8z m150 -26 c0 -5 -7 -9 -15 -9 -9 0 -12 6 -9
15 6 15 24 11 24 -6z"/>
<path d="M1246 1882 c5 -4 21 -18 37 -31 15 -14 27 -22 27 -18 0 10 -53 57
-64 57 -6 0 -6 -3 0 -8z"/>
<path d="M1541 1790 c-1 -40 21 -123 26 -100 2 9 -3 42 -11 75 -12 51 -14 55
-15 25z"/>
<path d="M1625 1805 c-21 -9 -24 -14 -12 -14 15 -1 13 -5 -10 -25 l-28 -24 25
-10 c39 -15 162 -35 190 -31 31 5 38 38 15 72 -11 18 -31 27 -72 36 -69 14
-71 13 -108 -4z m109 -28 c23 -17 17 -51 -9 -56 -17 -3 -17 -1 -6 12 15 19 7
37 -16 37 -11 0 -14 -7 -11 -25 4 -21 3 -23 -13 -14 -26 13 -24 38 4 49 30 12
31 12 51 -3z m-94 -22 c0 -8 -7 -15 -15 -15 -26 0 -18 20 13 29 1 1 2 -6 2
-14z m145 -33 c-22 -5 -27 1 -19 23 7 17 8 17 21 -1 12 -17 12 -19 -2 -22z"/>
<path d="M1190 1700 c-33 -7 -32 -7 15 -9 28 0 57 4 65 9 18 12 -25 12 -80 0z"/>
<path d="M1600 1682 c0 -12 45 -42 62 -42 8 1 5 7 -7 16 -33 25 -55 36 -55 26z"/>
<path d="M1584 1485 c6 -29 13 -52 17 -49 12 7 20 -29 9 -40 -7 -7 -10 -6 -10
2 0 14 -17 7 -55 -22 -19 -14 -17 -14 25 -9 48 6 60 16 60 50 0 17 -39 106
-53 119 -1 2 2 -21 7 -51z"/>
<path d="M691 1499 c0 -9 -11 -24 -23 -32 l-23 -16 23 0 c25 -1 36 18 29 46
-4 15 -5 15 -6 2z"/>
<path d="M1290 1481 c-15 -29 -12 -67 6 -82 14 -11 15 -9 9 23 -4 21 -2 45 4
57 7 13 8 21 2 21 -6 0 -15 -9 -21 -19z"/>
<path d="M1350 1410 c0 -5 7 -10 15 -10 8 0 15 -4 15 -10 0 -5 16 -10 35 -10
39 0 46 14 16 30 -25 13 -81 13 -81 0z"/>
<path d="M1506 1284 c-9 -22 -8 -24 9 -18 8 4 15 12 15 20 0 19 -16 18 -24 -2z"/>
<path d="M1315 1253 c-11 -2 -46 -13 -77 -24 -31 -11 -62 -18 -68 -17 -58 13
68 -127 145 -162 56 -25 184 -37 250 -23 43 9 60 33 76 102 9 39 0 50 -35 44
-13 -3 -22 -12 -22 -24 0 -22 1 -22 28 -8 19 10 20 9 14 -17 -14 -57 -32 -72
-92 -80 -74 -9 -176 1 -219 22 -40 19 -123 89 -114 98 3 3 37 -6 77 -20 82
-28 232 -42 272 -25 21 9 16 10 -25 5 -55 -6 -212 19 -228 35 -8 8 32 9 131 4
95 -4 142 -3 142 4 0 6 -36 10 -92 10 -51 0 -136 4 -188 9 l-95 9 60 23 c33
12 90 26 125 31 l65 8 -55 1 c-30 0 -64 -2 -75 -5z"/>
<path d="M1511 1240 c40 -4 77 -14 95 -27 44 -30 54 -35 54 -26 0 4 -22 20
-49 36 -39 22 -60 27 -107 26 l-59 -2 66 -7z"/>
<path d="M1640 1014 c0 -8 5 -12 10 -9 6 3 10 10 10 16 0 5 -4 9 -10 9 -5 0
-10 -7 -10 -16z"/>
<path d="M1379 890 c-16 -4 -3 -9 43 -13 95 -10 126 -24 143 -61 12 -28 13
-28 14 -8 1 30 -14 58 -36 67 -28 11 -137 21 -164 15z"/>
<path d="M627 1170 c-9 -58 -20 -118 -23 -135 -4 -16 -4 -28 -1 -25 10 9 48
212 45 239 -2 14 -11 -21 -21 -79z"/>
</g>
</svg>
