<svg version="1.0" xmlns="http://www.w3.org/2000/svg"
 width="326.000000pt" height="280.000000pt" viewBox="0 0 326.000000 280.000000"
 preserveAspectRatio="xMidYMid meet">

<g transform="translate(0.000000,280.000000) scale(0.100000,-0.100000)"
fill="#000000" stroke="none">
<path d="M1940 2619 c-74 -20 -148 -54 -214 -98 -38 -25 -85 -56 -105 -68 -92
-57 -147 -143 -161 -252 -4 -36 -14 -88 -22 -115 l-14 -50 -74 -18 c-199 -48
-364 -123 -428 -192 -49 -53 -61 -102 -69 -276 -5 -111 8 -316 23 -354 7 -18
-203 -157 -348 -231 -62 -32 -121 -64 -130 -73 -25 -22 -22 -49 8 -68 22 -15
45 -16 177 -11 98 4 186 14 247 28 163 36 145 39 143 -26 -1 -56 -2 -58 -40
-80 -59 -33 -101 -66 -118 -92 -21 -31 -14 -29 36 13 43 36 109 74 129 74 25
0 6 -30 -33 -53 -52 -31 -143 -111 -159 -140 -6 -12 14 1 45 28 78 70 165 121
179 107 9 -9 -4 -26 -50 -68 -35 -31 -69 -70 -78 -88 l-15 -31 28 34 c31 39
139 121 157 121 7 0 18 -12 25 -27 9 -20 14 -24 21 -13 6 10 19 4 56 -28 30
-28 68 -49 107 -61 57 -17 59 -19 38 -31 -16 -8 -20 -15 -13 -22 7 -7 3 -21
-11 -45 -15 -26 -17 -37 -8 -42 9 -6 8 -11 -4 -21 -9 -7 -13 -20 -10 -27 3 -8
-14 -40 -38 -71 -68 -90 -109 -153 -103 -159 10 -11 91 -22 158 -23 86 0 271
32 378 66 109 34 229 95 281 141 l40 36 29 -28 c89 -86 373 3 427 133 14 33
12 38 -29 125 -24 50 -62 120 -85 155 -24 35 -40 68 -38 72 8 13 -44 49 -79
55 -24 5 -35 14 -44 37 l-11 31 -20 -24 -20 -24 -17 24 c-16 23 -18 23 -30 6
-12 -16 -15 -14 -35 31 -27 59 -38 232 -17 246 10 5 9 15 -6 42 -10 19 -15 39
-11 46 4 6 0 22 -9 35 -16 24 -15 25 23 53 85 61 154 163 170 248 12 65 -2
107 -51 149 -50 42 -219 126 -332 165 -45 15 -89 31 -98 35 -20 8 -25 27 -7
23 12 -3 37 54 38 88 1 12 -6 28 -16 35 -15 13 -13 14 12 19 23 4 31 13 44 52
l16 47 27 -59 c28 -58 61 -88 117 -105 21 -6 23 -5 17 11 -4 12 8 4 31 -18 47
-46 116 -78 168 -78 42 0 153 24 182 39 10 5 45 14 77 20 32 6 66 17 75 24 9
7 35 19 59 26 44 12 51 24 28 50 -8 9 -21 33 -29 54 l-16 37 32 0 c18 0 51
-11 74 -24 35 -20 43 -22 47 -9 10 25 7 83 -5 106 -9 16 -9 22 0 25 30 10 -1
90 -62 158 -41 46 -136 104 -169 104 -7 0 -31 10 -53 21 -89 48 -141 59 -274
58 -69 0 -142 -5 -161 -10z m303 -44 c75 -19 136 -49 178 -86 27 -24 29 -28 9
-18 -14 7 -38 23 -53 35 -43 36 -53 29 -17 -12 36 -42 33 -55 -7 -26 -15 10
-46 25 -68 32 -22 7 -45 17 -52 22 -21 17 -102 37 -108 27 -4 -5 0 -9 7 -9 18
0 118 -68 118 -80 0 -21 -62 -8 -145 30 -48 22 -92 40 -97 40 -6 0 6 -18 25
-39 19 -22 41 -49 47 -62 11 -20 10 -21 -6 -14 -11 4 -37 13 -59 19 -22 6 -52
20 -67 30 -30 20 -99 39 -108 29 -3 -3 0 -8 7 -10 32 -12 78 -52 94 -82 10
-19 17 -36 15 -38 -1 -2 -20 4 -42 13 -44 19 -210 22 -228 4 -7 -7 -1 -10 20
-10 35 0 114 -35 114 -50 0 -5 -4 -10 -9 -10 -5 0 -32 -16 -61 -35 -29 -19
-60 -35 -70 -35 -23 0 -50 -10 -50 -19 0 -4 17 -5 38 -3 54 4 64 -6 50 -51
-11 -37 -27 -46 -103 -59 -16 -3 -13 -7 18 -25 29 -17 37 -29 37 -50 0 -48
-13 -57 -49 -39 -36 19 -39 14 -11 -21 25 -32 23 -35 -16 -24 l-29 8 1 99 c2
160 65 328 151 403 56 50 147 98 219 115 79 19 236 20 307 1z m298 -129 c26
-19 56 -48 68 -64 l21 -30 -62 5 c-45 5 -59 3 -54 -5 4 -7 18 -12 30 -12 24 0
61 -44 87 -103 16 -36 9 -40 -35 -22 -21 9 -57 15 -79 13 -53 -4 -57 -22 -23
-92 14 -29 26 -57 26 -61 0 -13 -127 3 -161 20 -17 9 -53 38 -80 64 -27 26
-49 42 -49 36 0 -27 88 -128 135 -153 19 -11 19 -11 -5 -12 -58 0 -145 31
-180 65 -20 19 -39 35 -44 35 -15 0 40 -83 74 -111 l35 -29 -78 0 c-92 0 -132
17 -193 82 -61 66 -68 77 -74 127 l-6 46 -13 -30 c-12 -29 -9 -81 6 -122 6
-15 5 -16 -9 -5 -24 19 -55 92 -59 137 -4 39 6 51 56 68 5 2 1 16 -9 31 -9 15
-15 30 -12 33 8 8 92 -25 106 -42 19 -23 30 -8 30 41 0 42 1 45 23 38 12 -3
39 -15 60 -26 39 -19 57 -17 57 8 0 8 5 14 10 14 27 0 173 -64 238 -104 39
-25 72 -41 72 -36 0 18 -113 99 -176 127 -35 15 -64 30 -64 33 0 3 21 5 47 5
40 0 48 3 45 18 -4 23 4 22 67 -13 64 -35 63 -35 59 -12 -3 18 -2 18 49 7 28
-6 31 -4 26 15 -3 11 -9 23 -14 26 -11 6 -12 24 -1 24 4 0 28 -16 53 -34z
m-391 -12 c0 -2 -7 -4 -15 -4 -8 0 -15 4 -15 10 0 5 7 7 15 4 8 -4 15 -8 15
-10z m-587 -154 c-27 -79 -35 -122 -40 -205 -6 -100 -7 -106 -27 -103 -19 3
-21 10 -21 75 0 62 3 75 24 97 18 20 21 26 9 26 -13 0 -14 7 -7 43 4 23 8 46
9 50 0 4 12 19 26 32 15 14 21 25 15 25 -8 0 -4 12 9 30 37 53 38 33 3 -70z
m-133 -299 c0 -5 -30 -14 -66 -20 -77 -14 -164 -45 -216 -77 -82 -52 -89 -106
-26 -210 54 -88 57 -141 13 -224 -28 -51 -194 -230 -214 -230 -22 0 -31 357
-12 457 14 69 32 104 73 135 83 63 251 135 373 161 39 9 71 16 73 16 1 1 2 -3
2 -8z m39 -90 c-21 -28 -21 -31 -6 -55 22 -33 52 -41 82 -22 32 21 32 50 0 82
l-25 25 38 -7 c124 -23 469 -169 540 -228 27 -23 32 -35 32 -70 0 -58 -39
-132 -103 -194 -47 -47 -104 -92 -117 -92 -3 0 -18 16 -34 36 -26 33 -27 36
-7 29 25 -8 29 10 4 19 -171 66 -665 -118 -881 -328 -69 -67 -94 -107 -75
-124 25 -24 15 -48 -26 -61 -54 -16 -218 -39 -331 -46 l-95 -6 98 50 c213 108
448 277 547 391 66 76 117 165 131 224 15 66 2 113 -52 194 -26 39 -39 67 -35
79 14 45 193 118 324 132 8 0 4 -10 -9 -28z m-218 -7 c-30 -13 -71 -37 -90
-51 -32 -23 -34 -24 -16 -4 21 24 60 48 110 68 54 21 51 12 -4 -13z m273 -20
c4 -11 1 -14 -11 -12 -9 2 -18 9 -21 16 -6 18 25 15 32 -4z m-346 -183 c55
-85 58 -146 10 -242 -58 -117 -259 -300 -471 -428 -99 -59 -275 -146 -283
-139 -3 3 44 30 103 60 209 105 384 226 512 351 170 167 201 277 112 408 -24
36 -41 73 -40 88 1 25 1 25 8 -4 4 -16 26 -59 49 -94z m648 -318 l26 -28 -46
-9 c-25 -4 -46 -12 -46 -16 0 -4 28 -10 63 -13 34 -3 76 -11 92 -18 l30 -12
-30 -7 -30 -6 32 -17 c36 -19 58 -45 29 -34 -15 6 -17 4 -11 -10 5 -10 10 -49
13 -86 5 -79 -12 -136 -64 -209 -43 -61 -27 -62 31 -1 39 40 45 44 51 27 4
-10 13 -34 20 -53 8 -18 14 -37 14 -41 0 -4 -27 -28 -60 -54 -57 -45 -90 -88
-90 -118 0 -7 8 -1 17 12 22 31 44 50 111 96 29 19 62 45 73 57 l21 22 -7 -32
c-9 -42 5 -42 40 -1 l28 33 -7 -30 -7 -30 53 3 c43 2 50 1 35 -9 -18 -10 -17
-12 10 -29 16 -9 43 -35 60 -56 41 -52 113 -197 113 -228 0 -26 -66 -93 -121
-122 -72 -37 -193 -55 -257 -37 -13 3 -28 17 -33 31 l-10 25 -32 -30 c-74 -70
-252 -148 -427 -187 -125 -27 -320 -50 -333 -37 -11 11 108 186 143 211 34 24
42 47 11 30 -13 -7 -22 -7 -26 0 -3 5 -2 10 3 10 7 0 32 42 32 55 0 3 -12 0
-27 -5 l-28 -10 30 27 c17 14 29 30 28 35 -3 7 12 12 29 9 4 0 15 13 23 29 19
37 27 39 19 2 -6 -25 -4 -24 32 16 22 25 56 49 79 57 39 13 40 13 13 20 -34 9
-113 -19 -149 -52 -21 -19 -32 -23 -55 -17 -45 11 -125 53 -171 91 -45 36 -59
62 -24 43 27 -14 36 -13 22 4 -6 8 -10 20 -9 27 2 9 -4 13 -14 11 -11 -2 -18
3 -18 13 0 8 6 15 13 15 7 1 5 6 -5 14 -22 16 -23 26 -3 26 18 0 19 7 3 24
-11 11 -16 11 -33 0 -11 -7 -33 -14 -50 -16 -28 -3 -30 -1 -33 35 -3 35 -1 37
20 33 13 -3 36 0 53 7 27 12 31 12 40 -7 6 -12 17 -21 25 -21 8 0 19 -6 23
-12 4 -7 16 -13 26 -13 10 0 26 -9 36 -20 15 -16 16 -24 6 -52 -6 -18 -21 -42
-33 -55 -39 -41 2 -24 50 21 26 24 81 60 122 78 80 37 140 93 140 131 0 21 -1
20 -18 -6 -37 -55 -150 -117 -215 -117 -30 0 -67 27 -67 49 0 9 -5 22 -12 29
-9 9 -8 12 5 12 10 0 17 8 17 20 0 25 -45 28 -72 3 -17 -15 -18 -14 -18 44 0
45 -5 67 -19 84 -11 13 -23 21 -27 16 -4 -4 -2 -13 4 -19 19 -19 14 -25 -18
-20 -51 7 -79 -5 -88 -41 l-9 -32 -12 28 c-23 59 -1 97 58 97 32 1 34 2 18 14
-15 12 -11 18 50 58 38 25 78 50 90 57 21 10 21 9 17 -21 -3 -18 -1 -44 5 -58
10 -25 10 -24 10 7 1 18 8 50 17 71 13 35 25 44 102 80 165 78 331 130 420
131 35 1 48 -4 68 -26z m-732 -435 c13 -25 14 -33 4 -40 -25 -15 -39 -8 -54
27 -18 45 -18 45 10 45 18 0 29 -9 40 -32z m-60 -20 c3 -13 6 -27 6 -33 -1
-15 -30 27 -30 42 0 22 17 15 24 -9z m156 -28 c-12 -8 -13 -13 -2 -30 18 -29
15 -36 -7 -16 -12 11 -25 15 -33 10 -7 -4 -2 5 11 19 14 15 29 27 35 27 6 0 4
-5 -4 -10z m-100 -130 c0 -5 -9 -10 -19 -10 -11 0 -23 -5 -27 -11 -4 -8 -9 -8
-18 1 -8 8 -7 13 4 20 20 13 60 13 60 0z m8 -52 c-6 -18 -28 -21 -28 -4 0 9 7
16 16 16 9 0 14 -5 12 -12z"/>
<path d="M1940 1695 c-73 -41 -245 -75 -425 -84 -131 -7 -138 -8 -110 -21 21
-10 66 -14 155 -13 104 0 140 5 213 27 87 26 144 51 181 81 26 20 17 27 -14
10z"/>
<path d="M1609 1218 c-113 -75 -318 -295 -307 -329 2 -7 19 9 38 37 45 65 179
204 260 267 80 62 85 67 78 67 -3 0 -34 -19 -69 -42z"/>
<path d="M1455 1243 c-69 -9 -115 -34 -140 -77 -25 -42 -35 -129 -17 -140 24
-15 142 65 167 114 17 33 36 111 26 109 -3 -1 -19 -4 -36 -6z m-76 -154 c-22
-14 -29 -11 -41 16 -9 21 -8 28 7 45 19 21 19 21 33 -16 13 -31 13 -37 1 -45z
m-49 -19 c0 -5 -4 -10 -10 -10 -5 0 -10 5 -10 10 0 6 5 10 10 10 6 0 10 -4 10
-10z"/>
<path d="M1705 1193 c-156 -96 -412 -333 -360 -333 3 0 39 36 81 80 85 89 173
163 283 239 86 59 83 68 -4 14z"/>
<path d="M1699 1102 c-93 -46 -191 -115 -258 -181 -71 -69 -64 -85 7 -19 79
73 180 144 277 195 100 53 77 57 -26 5z"/>
<path d="M1440 720 c0 -12 -4 -18 -10 -15 -5 3 -10 -3 -10 -14 0 -13 -5 -18
-13 -15 -10 4 -12 -3 -9 -26 5 -32 -13 -41 -36 -18 -9 9 -12 8 -12 -5 0 -14
-4 -16 -17 -9 -10 5 -24 7 -31 5 -7 -3 -22 3 -33 13 -27 25 -33 12 -9 -19 24
-30 73 -43 125 -33 28 6 39 15 55 46 21 42 26 95 10 105 -5 3 -10 -3 -10 -15z"/>
<path d="M1630 512 c0 -6 5 -14 11 -18 8 -5 8 -8 0 -13 -6 -4 -16 -32 -20 -62
-5 -30 -12 -62 -16 -71 -4 -10 -4 -18 -1 -18 11 0 57 110 51 120 -3 6 1 10 9
10 23 0 20 13 -9 40 -14 13 -25 18 -25 12z"/>
</g>
</svg>
