<?xml version="1.0" standalone="no"?>
<!DOCTYPE svg PUBLIC "-//W3C//DTD SVG 20010904//EN"
 "http://www.w3.org/TR/2001/REC-SVG-20010904/DTD/svg10.dtd">
<svg version="1.0" xmlns="http://www.w3.org/2000/svg"
 width="482.000000pt" height="505.000000pt" viewBox="0 0 482.000000 505.000000"
 preserveAspectRatio="xMidYMid meet">

<g transform="translate(0.000000,505.000000) scale(0.100000,-0.100000)"
fill="#000000" stroke="none">
<path d="M1770 4539 c-39 -43 -92 -146 -124 -239 -20 -60 -29 -74 -43 -72 -10
2 -48 6 -84 9 -53 4 -73 1 -106 -15 -81 -42 -146 -146 -188 -303 -13 -51 -27
-94 -30 -97 -3 -4 -26 -14 -50 -23 -260 -99 -578 -540 -681 -948 -98 -383 -14
-722 240 -977 74 -74 228 -184 258 -184 9 0 54 9 100 20 179 43 338 36 431
-18 56 -33 135 -107 162 -153 19 -34 19 -34 -35 12 -78 66 -210 144 -210 124
0 -3 10 -9 23 -14 71 -27 230 -178 307 -292 70 -101 120 -229 120 -305 0 -20
14 -49 41 -85 50 -67 155 -280 204 -415 24 -66 49 -115 72 -140 116 -131 301
-327 316 -335 25 -14 32 -6 47 48 9 33 30 66 67 106 94 103 189 334 208 505 3
31 8 68 11 82 5 23 7 22 21 -15 8 -22 23 -105 33 -185 28 -226 59 -393 77
-412 12 -14 32 -18 80 -18 166 0 430 93 583 205 95 70 271 324 306 441 13 45
13 57 0 95 -7 24 -16 80 -19 125 -5 89 -45 203 -97 281 -17 24 -30 48 -30 52
0 5 54 54 120 110 214 183 279 301 250 454 -12 63 -11 64 19 112 18 28 31 62
31 80 0 41 -47 180 -98 288 -45 95 -52 100 -171 113 -38 4 -78 16 -97 28 l-33
21 -1 98 c0 102 -20 211 -50 283 -17 38 -17 46 -4 85 28 81 -8 212 -73 270
-31 26 -42 30 -86 28 -47 -3 -52 -1 -85 37 -65 74 -182 261 -203 326 -69 211
-218 352 -417 393 -37 8 -88 22 -112 31 -82 30 -311 30 -390 -1 -13 -4 -18 7
-28 53 -29 140 -150 214 -222 137 l-23 -25 -101 98 c-56 53 -125 110 -154 125
l-52 28 -30 -32z m140 -92 c24 -17 80 -62 123 -100 l78 -69 27 24 c15 14 35
28 45 32 24 8 77 -18 98 -47 18 -25 49 -109 49 -132 0 -29 -18 -14 -24 20 -7
34 -63 105 -84 105 -38 0 -57 -86 -28 -126 13 -16 18 -17 36 -6 25 15 40 8 40
-18 0 -13 -14 -27 -39 -39 -21 -11 -73 -48 -116 -81 l-77 -62 -46 20 c-26 11
-68 23 -94 26 l-46 7 15 27 c14 24 14 32 2 57 -21 44 -58 61 -106 49 -36 -9
-38 -11 -36 -44 3 -59 -15 -108 -45 -124 -15 -7 -66 -16 -113 -20 -77 -5 -88
-4 -93 11 -9 23 19 43 61 43 36 0 73 32 73 64 0 11 -12 33 -27 48 -35 36 -94
38 -144 5 -39 -26 -90 -107 -121 -189 -12 -33 -30 -64 -44 -73 -13 -8 -24 -13
-24 -11 0 3 13 42 30 87 53 145 112 227 186 255 42 16 53 16 157 2 14 -2 26
15 51 77 37 91 75 156 119 202 34 36 34 36 117 -20z m355 -240 c8 -13 16 -36
19 -53 2 -16 1 -21 -1 -12 -7 27 -32 43 -45 30 -20 -20 -35 -13 -42 19 -12 61
33 71 69 16z m385 -63 c30 -7 29 -8 -37 -29 -72 -23 -118 -44 -110 -51 2 -2
24 3 48 12 24 8 87 18 139 21 278 16 513 -159 606 -451 12 -39 23 -62 25 -53
3 10 35 -30 89 -111 47 -70 85 -130 85 -134 0 -10 -155 -148 -166 -148 -13 0
-38 63 -65 165 -21 78 -23 83 -18 35 10 -85 40 -190 93 -323 76 -191 95 -267
82 -329 l-6 -31 -39 63 c-21 34 -70 96 -108 139 -39 42 -76 91 -84 108 -8 18
-17 81 -20 140 -7 130 -20 161 -107 259 -78 90 -115 120 -202 172 -73 43 -66
56 14 27 53 -18 52 -11 -1 17 -38 20 -57 23 -153 22 -126 -1 -184 -17 -297
-84 -63 -38 -69 -40 -110 -30 -88 20 -249 24 -316 6 -84 -21 -158 -57 -210
-101 -50 -44 -56 -29 -18 50 30 63 79 110 142 136 l49 20 -40 -6 c-57 -10
-108 -39 -148 -86 -67 -78 -70 -96 -76 -471 -3 -185 -8 -339 -11 -342 -3 -3
-11 34 -18 83 -7 51 -38 170 -76 287 -35 110 -70 236 -77 279 -13 78 -13 79
-20 40 -10 -52 5 -150 37 -248 26 -77 26 -80 27 -435 2 -281 -1 -370 -12 -417
l-15 -60 -8 75 c-16 160 -30 255 -78 530 -64 372 -72 433 -74 568 -1 112 -1
113 -15 70 -18 -58 -17 -267 3 -383 l15 -90 -30 -65 c-36 -76 -117 -210 -128
-210 -4 0 -13 17 -19 38 -26 94 -26 94 32 225 52 116 97 232 95 246 0 3 -6 -5
-12 -19 -7 -14 -37 -70 -66 -124 -50 -91 -55 -97 -64 -75 -5 13 -7 76 -4 139
5 116 26 201 64 259 l16 26 -22 -19 c-32 -29 -77 -132 -90 -207 -14 -84 -14
-129 2 -206 11 -52 11 -66 -1 -89 -18 -35 -12 -125 13 -179 13 -27 19 -65 19
-118 l1 -77 -30 6 c-16 3 -64 17 -105 30 -128 40 -202 54 -286 54 -104 0 -155
-25 -199 -95 -27 -43 -30 -57 -30 -129 0 -89 19 -138 72 -188 37 -35 73 -48
136 -48 74 0 115 13 267 85 74 36 146 66 159 67 24 3 24 1 25 -70 1 -48 -3
-77 -11 -84 -22 -18 -16 -84 8 -100 20 -12 20 -17 9 -54 -15 -51 0 -89 47
-119 29 -19 31 -23 26 -65 -5 -39 -1 -50 21 -77 l26 -31 -58 -5 -57 -5 -51 50
c-57 55 -125 163 -160 253 -29 75 -31 46 -3 -38 28 -84 74 -169 121 -222 21
-24 35 -46 31 -48 -5 -2 -38 -10 -76 -17 l-67 -12 -57 33 c-88 52 -278 247
-337 346 -146 247 -163 496 -55 829 48 150 129 317 217 449 76 114 252 296
322 334 l45 24 -31 -34 c-55 -59 -112 -148 -144 -226 -17 -41 -29 -77 -27 -80
3 -2 8 6 12 19 15 50 90 163 153 230 104 110 218 180 353 218 109 30 117 28
81 -17 -60 -78 -70 -116 -12 -51 77 88 234 147 362 135 129 -12 279 -120 348
-251 l31 -60 -6 65 c-5 52 -1 77 19 134 l24 70 -24 -30 c-13 -16 -30 -48 -37
-69 l-13 -40 -22 36 c-12 19 -45 57 -73 83 l-52 48 35 32 c126 116 405 207
548 179z m-815 -54 c36 -39 7 -78 -70 -94 l-30 -7 3 56 c3 47 8 58 25 64 27
10 51 4 72 -19z m-275 0 c11 -11 20 -24 20 -28 0 -24 -30 -44 -75 -50 -50 -7
-50 -7 -53 -47 -3 -39 -4 -40 -59 -58 -31 -10 -58 -16 -60 -13 -11 10 62 141
98 177 46 46 95 53 129 19z m1250 -493 c97 -47 185 -129 266 -247 46 -67 47
-71 55 -172 5 -57 14 -119 19 -140 6 -20 46 -81 89 -136 122 -156 161 -236
176 -356 6 -47 5 -56 -8 -56 -19 0 -65 -54 -73 -85 -3 -14 -15 -27 -26 -31
-32 -10 -49 -67 -55 -194 l-6 -118 -43 -44 c-24 -23 -43 -49 -44 -56 0 -31
-52 -111 -102 -159 -66 -62 -152 -107 -256 -133 l-77 -20 75 6 c41 4 102 15
135 25 32 10 60 17 61 16 1 -1 -4 -35 -13 -76 -13 -64 -22 -83 -74 -148 -75
-94 -135 -196 -165 -279 -26 -72 -34 -133 -10 -79 l13 30 8 -39 c10 -50 0
-205 -20 -319 -32 -180 -98 -363 -161 -450 -31 -42 -37 -46 -55 -36 -15 8 -24
8 -32 0 -6 -6 -27 -11 -47 -11 -32 0 -41 6 -71 47 -18 26 -79 95 -135 153 -90
94 -104 114 -138 195 -45 108 -106 222 -152 288 -22 30 -34 59 -34 80 0 82
-52 212 -133 331 -22 33 -56 91 -75 130 -25 51 -57 92 -112 146 -71 70 -79 82
-99 150 -21 69 -82 204 -101 223 -4 5 3 34 17 64 18 38 23 64 19 85 -4 21 1
42 18 71 33 58 40 106 21 159 -8 23 -15 57 -15 74 0 16 -4 34 -9 40 -10 10 4
54 18 54 13 0 35 -189 35 -312 1 -110 4 -113 37 -38 42 94 52 172 58 480 l6
295 18 -55 c27 -86 47 -190 47 -247 0 -132 46 6 61 185 6 64 7 165 3 224 -3
59 -3 139 1 177 7 67 9 73 56 120 55 56 162 112 247 130 65 13 175 14 264 1
66 -10 67 -9 140 29 83 44 129 60 202 71 64 9 72 7 176 -43z m845 -291 c54
-58 76 -178 41 -231 -10 -14 -31 -34 -48 -45 -41 -25 -158 -44 -204 -33 -32 7
-38 15 -71 87 -32 70 -34 80 -19 88 9 5 47 36 84 70 67 60 130 97 166 98 10 0
33 -15 51 -34z m48 -367 c15 -42 20 -83 21 -189 l1 -135 -28 -3 c-22 -3 -31
-13 -49 -54 -23 -55 -45 -68 -109 -68 l-39 0 19 38 c42 83 46 217 7 289 -19
35 -19 30 -1 -31 19 -63 19 -119 -1 -187 -27 -93 -64 -131 -64 -66 0 17 -5 50
-9 71 -7 28 -5 57 6 103 14 54 14 74 4 132 -7 37 -18 79 -25 93 l-13 24 76 1
c55 0 89 6 121 21 25 11 49 19 54 18 5 -1 18 -27 29 -57z m-2297 -60 l21 -111
-27 -37 c-27 -36 -149 -151 -161 -151 -10 0 -19 40 -19 84 0 30 17 68 75 169
41 72 75 137 75 144 0 7 3 13 8 13 4 0 16 -50 28 -111z m43 -227 c1 -25 -9
-43 -39 -76 -22 -24 -54 -49 -71 -56 -16 -7 -28 -15 -25 -17 2 -2 21 3 41 12
21 8 40 14 42 12 7 -8 -71 -77 -112 -98 -47 -25 -83 -21 -103 11 -21 34 -6 56
81 122 45 35 102 84 127 110 49 52 58 49 59 -20z m-469 -42 c63 -16 141 -31
173 -35 31 -4 57 -9 57 -12 0 -2 -16 -20 -36 -38 -32 -30 -36 -39 -32 -74 l3
-40 -100 -42 c-264 -110 -351 -121 -423 -55 -100 90 -59 290 66 324 52 15 157
4 292 -28z m2815 -36 l30 -14 -45 5 c-25 4 -49 10 -54 16 -15 14 35 10 69 -7z
m-51 -33 c15 -6 11 -9 -20 -19 -43 -13 -53 -9 -34 13 13 16 25 18 54 6z m259
-32 c43 -11 66 -49 123 -204 38 -101 41 -145 15 -194 -21 -39 -19 -40 -56 54
-37 92 -120 259 -156 312 -16 23 -29 45 -29 48 0 7 34 1 103 -16z m-129 -24
c56 -60 210 -403 237 -527 27 -129 -48 -253 -278 -459 -86 -76 -123 -104 -124
-92 0 10 -5 5 -10 -12 -8 -28 2 -133 15 -154 10 -16 -100 -106 -170 -140 -154
-74 -372 -103 -496 -67 -88 25 -89 30 -78 187 12 159 35 342 54 434 12 58 19
71 55 102 41 35 91 117 91 148 0 21 159 180 223 224 31 21 54 30 67 26 18 -6
18 -4 9 25 -6 17 -8 42 -4 57 5 23 4 25 -9 14 -9 -8 -16 -22 -16 -33 0 -16 -5
-19 -21 -15 -15 4 -19 2 -15 -8 3 -9 -15 -28 -46 -50 -84 -61 -82 -62 -76 46
6 105 15 132 56 153 47 24 147 46 211 46 53 0 64 -4 96 -31 40 -35 142 -184
186 -271 33 -66 36 -102 10 -175 -22 -65 -7 -58 25 11 36 78 32 113 -28 228
l-52 100 23 19 c46 38 65 27 106 -63 80 -176 98 -230 97 -293 0 -33 -5 -72
-11 -87 -17 -44 -2 -33 19 15 11 23 20 63 20 89 0 48 -39 172 -91 287 -16 35
-29 76 -29 92 0 15 -11 40 -24 56 -13 15 -33 47 -44 70 -12 23 -32 49 -44 57
-22 16 -22 16 10 16 22 0 40 -8 56 -25z m-2455 -27 c-5 -18 -26 -50 -46 -71
l-38 -39 34 17 34 17 -19 -33 c-18 -31 -77 -68 -131 -84 -18 -5 -24 -1 -29 19
-12 49 3 73 74 119 37 24 78 56 91 70 30 33 42 27 30 -15z m2380 -16 c31 -44
29 -50 -22 -80 l-48 -28 -48 48 c-47 47 -49 48 -112 48 -35 0 -91 -7 -124 -15
-84 -20 -89 -19 -61 20 18 25 73 32 248 34 l147 1 20 -28z m-2354 -104 c-14
-80 -89 -156 -179 -180 -40 -11 -48 -10 -63 4 -26 27 3 59 73 83 75 26 144 88
144 132 0 16 3 33 7 37 13 12 24 -37 18 -76z m2445 13 c15 -29 12 -43 -8 -37
-10 4 -39 -4 -65 -18 -39 -19 -49 -21 -58 -10 -17 21 -5 39 43 63 53 26 74 27
88 2z m-2490 -199 c0 -33 -85 -172 -105 -172 -26 0 -65 41 -65 70 0 45 10 59
50 70 20 5 52 21 71 34 44 32 49 31 49 -2z m-20 -190 c0 -28 -39 -122 -51
-122 -15 0 -30 40 -24 63 4 12 18 42 32 66 26 45 43 43 43 -7z m65 -125 c35
-93 34 -98 -12 -81 -21 7 -48 13 -60 14 -16 0 -23 6 -23 20 0 27 53 130 62
122 4 -4 18 -37 33 -75z m1499 -435 c-6 -28 -9 -30 -26 -21 -20 11 -19 11 3
35 27 29 31 27 23 -14z m846 -82 c33 -66 80 -217 80 -259 0 -68 -121 -193
-249 -260 -234 -121 -530 -128 -691 -16 -50 35 -58 56 -71 192 -18 183 -1 273
61 328 l23 20 -7 -64 c-3 -35 -6 -82 -6 -104 0 -35 -2 -38 -16 -26 -15 12 -15
10 0 -26 34 -83 110 -115 272 -115 238 0 460 89 547 220 18 26 24 85 8 75 -16
-9 -25 63 -11 80 20 24 28 18 60 -45z m-882 32 c9 -6 6 -15 -14 -32 -14 -14
-34 -39 -45 -57 -21 -33 -39 -36 -39 -7 0 21 58 104 73 104 7 0 18 -4 25 -8z
m-102 -157 c10 -40 -1 -50 -13 -11 -6 20 -7 36 -2 36 5 0 11 -11 15 -25z m-5
-108 c15 -89 7 -293 -15 -397 -21 -99 -62 -222 -96 -290 -31 -61 -117 -180
-130 -180 -22 0 -14 47 14 80 47 55 115 211 146 334 41 162 53 270 48 424 -4
110 -2 131 8 117 7 -9 18 -49 25 -88z m1099 -192 c0 -81 -64 -193 -203 -357
-121 -143 -325 -248 -582 -298 l-100 -19 -16 21 c-22 28 -60 214 -94 451 l-6
48 38 -20 c85 -43 152 -56 293 -55 108 0 152 5 220 23 161 43 319 133 397 226
20 24 40 42 45 39 4 -3 8 -29 8 -59z m-1554 -570 c27 -33 39 -56 35 -67 -5
-14 -24 3 -86 75 -118 135 -122 140 -129 167 -5 18 12 5 66 -50 40 -41 92 -98
114 -125z m174 -95 c7 -27 -3 -96 -15 -108 -10 -10 -95 86 -95 107 0 26 6 29
58 27 40 -1 47 -4 52 -26z"/>
<path d="M1772 4381 c-36 -52 -72 -154 -72 -202 l0 -29 37 20 c21 11 57 20 80
20 24 0 43 2 43 4 0 2 -7 20 -15 40 -8 20 -21 72 -28 116 l-12 80 -33 -49z
m37 -153 c1 -5 -8 -8 -20 -8 -11 0 -30 -5 -41 -11 -20 -11 -21 -9 -15 21 4 17
16 53 28 78 l21 47 14 -60 c7 -33 13 -63 13 -67z"/>
<path d="M1885 4388 c13 -24 33 -72 45 -108 12 -36 23 -66 24 -68 2 -1 20 5
41 14 21 8 49 13 62 9 l25 -6 -19 33 c-27 48 -104 123 -151 147 -23 12 -43 21
-46 21 -2 0 6 -19 19 -42z m135 -121 c-3 -2 -16 -7 -31 -10 -23 -6 -26 -2 -37
36 -7 23 -15 49 -19 57 -3 8 16 -6 43 -32 26 -26 46 -49 44 -51z"/>
<path d="M1895 4168 c-6 -26 -3 -34 16 -49 32 -25 36 -24 44 13 6 26 3 35 -15
50 -31 25 -37 23 -45 -14z"/>
<path d="M2010 4170 c-28 -28 -26 -82 3 -116 l24 -27 70 21 71 22 -28 30 c-16
17 -31 44 -35 60 -6 27 -10 30 -46 30 -26 0 -46 -7 -59 -20z m89 -52 c11 -23
19 -43 18 -44 -2 -2 -21 -6 -43 -10 -38 -6 -41 -4 -53 24 -16 39 -1 72 33 72
18 0 29 -10 45 -42z"/>
<path d="M2610 3785 c-77 -22 -159 -74 -202 -131 -53 -69 -54 -93 -1 -34 53
59 159 115 247 131 159 29 321 -45 414 -189 44 -70 76 -165 111 -332 29 -135
47 -197 56 -188 3 3 1 18 -4 34 -6 16 -19 93 -31 170 -26 176 -42 242 -80 320
-45 91 -99 148 -186 190 -67 34 -83 37 -172 40 -66 3 -115 -1 -152 -11z"/>
<path d="M2700 3350 c-94 -20 -90 -17 -90 -61 0 -35 2 -40 18 -34 159 67 301
68 427 5 l60 -30 -47 44 c-26 24 -69 52 -95 61 -57 19 -210 28 -273 15z"/>
<path d="M2180 3201 c-213 -84 -322 -164 -419 -305 l-34 -48 74 60 c105 84
171 128 267 173 85 41 213 79 264 79 15 0 28 5 28 12 0 18 -52 68 -69 67 -9 0
-59 -17 -111 -38z"/>
<path d="M2870 3174 c-44 -19 -68 -41 -87 -79 l-15 -30 38 36 c22 20 49 42 61
48 26 13 87 14 131 2 45 -13 40 -4 -10 19 -51 23 -72 24 -118 4z"/>
<path d="M3040 3134 c0 -6 -21 -9 -58 -6 -92 7 -170 -42 -222 -141 -22 -40
-28 -46 -65 -50 -48 -5 -67 9 -102 73 l-24 45 6 -35 c3 -19 14 -51 25 -71 18
-37 18 -37 -1 -55 -30 -27 -22 -35 14 -14 73 43 159 34 216 -22 19 -18 38 -45
43 -60 6 -16 13 -26 18 -23 11 7 37 -26 45 -57 4 -14 2 -36 -5 -47 -15 -28 4
-27 24 1 25 35 20 81 -10 112 -15 14 -33 26 -40 26 -8 0 -14 6 -14 14 0 9 16
16 44 20 58 9 160 60 186 93 25 32 25 53 2 101 -10 20 -17 45 -14 54 2 13 -1
16 -12 12 -11 -4 -16 -1 -16 11 0 9 -5 13 -11 9 -6 -3 -15 0 -20 7 -5 8 -9 9
-9 3z m0 -62 c19 -11 44 -35 54 -54 19 -33 19 -37 3 -61 -20 -31 -106 -74
-167 -83 l-45 -7 27 32 c15 17 30 48 34 68 6 33 4 47 -21 106 -6 15 -1 17 37
17 24 0 59 -8 78 -18z m-126 -24 c22 -31 20 -87 -4 -126 -27 -45 -41 -47 -85
-18 -36 25 -37 26 -12 26 17 0 32 9 43 26 16 24 16 26 -4 54 l-22 29 22 15
c30 22 44 20 62 -6z m-139 -108 c3 -5 1 -10 -4 -10 -6 0 -11 5 -11 10 0 6 2
10 4 10 3 0 8 -4 11 -10z"/>
<path d="M2006 2946 c-52 -19 -86 -45 -113 -86 -35 -51 -28 -51 25 0 60 57
149 87 234 77 38 -4 48 -3 36 4 -31 18 -140 21 -182 5z"/>
<path d="M2024 2881 c-43 -11 -94 -44 -128 -81 -22 -26 -33 -30 -54 -25 -26 6
-26 6 -8 -14 17 -19 17 -19 -6 -15 l-23 6 24 -21 23 -21 -23 0 c-22 -1 -23 -2
-6 -14 9 -7 17 -22 17 -33 0 -83 460 7 495 96 8 21 -38 64 -101 95 -59 29
-155 41 -210 27z m145 -42 c56 -12 145 -64 136 -79 -11 -18 -80 -49 -156 -70
-40 -11 -74 -18 -76 -17 -1 2 5 23 14 46 13 34 15 51 6 81 -7 28 -7 41 1 44
17 7 22 7 75 -5z m-89 -61 c0 -35 -22 -89 -43 -106 -17 -14 -150 -22 -162 -10
-4 3 1 20 10 38 12 23 21 30 33 25 37 -16 60 -16 75 0 20 19 22 56 5 73 -9 9
-3 15 23 26 31 13 35 13 47 -1 6 -9 12 -30 12 -45z"/>
<path d="M2844 2689 c-33 -37 -70 -59 -125 -72 l-53 -14 36 -7 c42 -8 93 10
122 43 11 11 29 21 41 21 24 0 35 16 28 38 -7 18 -28 15 -49 -9z"/>
<path d="M2375 2670 c-23 -24 -30 -40 -30 -71 0 -51 30 -79 84 -78 35 1 35 1
8 9 -16 5 -35 14 -43 21 -20 17 -17 78 6 117 25 40 13 41 -25 2z"/>
<path d="M3053 2633 c34 -64 169 -144 242 -142 l40 1 -39 9 c-57 13 -145 63
-205 116 -50 44 -52 45 -38 16z"/>
<path d="M2550 2633 c-37 -14 -42 -63 -7 -63 24 0 57 28 57 47 0 6 6 14 13 16
17 7 -45 7 -63 0z"/>
<path d="M2320 2468 c0 -7 -14 -42 -30 -76 -40 -86 -136 -181 -210 -210 -52
-21 -53 -22 -15 -16 124 20 240 141 261 272 4 23 4 42 0 42 -3 0 -6 -6 -6 -12z"/>
<path d="M3105 2415 c-55 -43 -216 -125 -274 -139 -31 -8 -83 -22 -116 -32
-47 -15 -93 -19 -214 -19 -133 0 -148 -2 -115 -12 22 -6 86 -12 143 -12 216
-2 527 111 596 216 19 28 18 28 -20 -2z"/>
<path d="M2932 2408 c-22 -13 -59 -23 -107 -28 -66 -6 -83 -13 -172 -67 -54
-33 -109 -65 -123 -71 -25 -12 -25 -12 5 -7 17 3 82 31 145 61 80 39 132 57
170 61 32 3 73 16 98 31 34 20 51 23 85 18 l42 -6 -34 15 c-45 20 -70 19 -109
-7z"/>
<path d="M3051 2306 c-56 -59 -244 -129 -391 -145 l-75 -8 81 -2 c163 -2 358
75 405 162 13 24 7 21 -20 -7z"/>
<path d="M1490 1940 c-1 -35 63 -144 113 -194 117 -114 332 -175 533 -150 l69
8 -100 7 c-273 20 -506 137 -589 297 -14 26 -25 40 -26 32z"/>
<path d="M3514 3271 c-38 -23 -103 -98 -110 -127 -19 -75 31 -124 126 -124 32
0 64 6 75 14 18 13 15 13 -28 9 -56 -7 -133 19 -142 47 -8 26 34 106 84 158
44 46 43 52 -5 23z"/>
<path d="M3485 2876 c10 -14 19 -26 22 -26 7 0 -17 39 -28 46 -6 3 -3 -5 6
-20z"/>
<path d="M765 2601 c-14 -6 1 -9 52 -13 88 -6 180 -47 189 -83 12 -46 -46
-118 -126 -155 -43 -20 -44 -21 -10 -14 95 17 180 93 180 160 0 39 -19 60 -78
86 -48 21 -175 33 -207 19z"/>
</g>
</svg>
