<?xml version="1.0" standalone="no"?>
<!DOCTYPE svg PUBLIC "-//W3C//DTD SVG 20010904//EN"
 "http://www.w3.org/TR/2001/REC-SVG-20010904/DTD/svg10.dtd">
<svg version="1.0" xmlns="http://www.w3.org/2000/svg"
 width="182.000000pt" height="250.000000pt" viewBox="0 0 182.000000 250.000000"
 preserveAspectRatio="xMidYMid meet">

<g transform="translate(0.000000,250.000000) scale(0.100000,-0.100000)"
fill="#000000" stroke="none">
<path d="M647 2425 c-191 -54 -358 -147 -469 -261 -78 -80 -101 -124 -102
-200 -1 -48 5 -72 28 -118 35 -70 103 -141 180 -191 61 -39 63 -46 42 -115
-26 -84 -44 -115 -90 -153 -50 -41 -112 -132 -165 -240 -30 -61 -33 -75 -29
-136 3 -62 7 -73 47 -126 45 -59 87 -85 139 -85 16 0 35 -7 42 -15 19 -23 100
-65 127 -65 13 0 33 5 44 11 16 8 25 5 47 -19 56 -60 162 -97 310 -107 101 -8
100 -7 77 -67 -4 -11 11 -17 65 -25 67 -11 104 -25 177 -69 32 -19 32 -19 47
1 8 11 18 32 21 47 7 31 54 74 143 129 44 27 62 45 62 60 0 11 14 34 31 52 51
51 80 105 86 161 4 43 0 66 -26 129 -50 125 -62 188 -68 356 -4 122 -10 166
-24 200 l-19 44 115 116 c91 91 122 129 149 185 47 96 66 158 66 211 0 39 -5
50 -37 81 -95 92 -551 221 -808 230 -105 3 -131 1 -208 -21z m372 -41 c241
-35 542 -130 607 -190 41 -38 44 -73 14 -158 -39 -115 -81 -177 -189 -284 -87
-86 -106 -100 -114 -86 -6 10 -5 25 2 41 40 89 -28 217 -144 268 -98 44 -184
58 -317 53 -105 -4 -137 -9 -218 -37 -110 -37 -166 -68 -226 -123 -45 -42 -63
-80 -73 -160 l-6 -49 -60 44 c-108 79 -166 154 -179 232 -10 60 36 146 124
229 73 69 120 96 283 166 168 71 289 85 496 54z m34 -379 c119 -25 200 -70
248 -137 16 -22 18 -32 9 -48 -8 -16 -7 -25 5 -42 8 -13 15 -29 14 -38 0 -8
-7 -1 -14 16 -30 68 -113 113 -266 144 -251 51 -431 -5 -601 -188 -51 -55 -57
-60 -63 -41 -8 25 9 72 43 118 52 71 204 144 356 170 169 30 377 -4 476 -77
32 -23 33 -24 15 -3 -65 75 -265 120 -442 100 -194 -21 -352 -93 -426 -194
-23 -31 -28 -34 -22 -15 25 82 128 157 288 209 127 42 261 51 380 26z m-4
-122 c96 -19 174 -48 210 -79 29 -24 43 -54 57 -124 6 -34 6 -35 -13 -17 -27
23 -47 22 -99 -9 -25 -15 -53 -24 -64 -21 -32 8 -32 -10 0 -23 l29 -12 -26
-22 -26 -22 51 -22 c53 -23 97 -28 106 -13 11 18 -14 61 -41 73 -23 9 -25 12
-10 15 10 3 30 -3 45 -12 l27 -16 -24 21 c-32 28 -18 39 17 13 27 -21 29 -29
22 -108 -1 -16 1 -57 5 -91 6 -49 2 -82 -19 -172 -22 -93 -26 -124 -20 -190 6
-77 -5 -130 -26 -117 -5 3 -1 18 8 34 13 24 14 34 4 55 -18 40 -62 36 -99 -9
l-28 -35 -50 25 c-32 16 -75 26 -120 30 -48 4 -64 2 -50 -4 11 -5 38 -10 60
-10 43 -1 145 -43 145 -60 0 -18 -124 -111 -163 -123 -30 -9 -46 -9 -70 1 -18
7 -51 17 -75 22 -59 12 -191 82 -246 130 -76 67 -80 110 -31 324 14 61 25 122
25 138 0 15 13 69 29 120 16 50 32 113 36 139 7 57 57 134 102 160 66 39 166
42 322 11z m-385 -45 c-34 -41 -50 -79 -58 -143 -4 -27 -18 -80 -31 -117 -13
-37 -27 -91 -30 -120 -4 -29 -17 -100 -30 -158 -13 -58 -27 -127 -31 -155 l-7
-50 -13 30 c-12 27 -11 57 3 110 4 15 2 17 -6 9 -6 -6 -14 -33 -17 -60 -5 -43
-3 -54 18 -79 14 -17 32 -44 41 -60 8 -17 24 -39 36 -49 21 -19 21 -55 -1 -83
-5 -7 -7 -17 -3 -23 20 -33 -52 -140 -94 -140 -36 0 -88 21 -124 51 l-38 32
39 17 c22 10 43 23 46 29 4 6 -13 2 -36 -9 -25 -11 -65 -20 -95 -20 -65 0
-101 28 -133 102 -25 59 -24 108 5 173 l18 40 8 -45 c10 -53 52 -116 97 -147
62 -41 173 -48 206 -12 8 9 6 10 -9 4 -50 -18 -102 -17 -151 4 -26 12 -57 29
-67 39 -34 30 -57 89 -57 143 0 86 17 111 178 261 77 73 95 101 136 217 38
106 25 98 -18 -11 -33 -82 -90 -177 -107 -178 -10 0 48 167 70 203 31 50 119
131 196 181 38 26 73 46 78 46 5 0 -4 -15 -19 -32z m628 -185 c24 -22 23 -36
-2 -21 -15 10 -26 10 -53 0 -54 -20 -65 -14 -22 13 48 29 53 30 77 8z m-74
-99 c-1 -9 -9 -19 -16 -22 -11 -3 -12 0 -4 14 5 11 7 26 4 34 -3 11 -2 12 8 4
6 -7 10 -20 8 -30z m42 -15 c0 -11 -7 -19 -15 -19 -10 0 -15 10 -15 31 0 27 2
30 15 19 8 -7 15 -21 15 -31z m116 -188 c14 -197 19 -226 61 -318 36 -82 43
-120 32 -174 -12 -53 -58 -105 -84 -95 -10 4 -14 13 -11 24 4 12 -1 25 -13 36
-14 13 -18 26 -14 55 3 22 1 41 -5 45 -7 4 -7 17 -1 39 7 24 4 58 -12 133 -16
74 -20 114 -14 150 6 39 9 45 16 29 4 -11 8 -37 8 -57 1 -20 15 -76 31 -125
34 -99 40 -185 14 -221 -9 -13 -11 -22 -4 -22 16 0 40 63 40 105 0 20 -12 71
-26 113 -30 87 -56 227 -54 287 0 21 -4 60 -11 85 -9 34 -8 55 1 90 19 72 31
29 46 -179z m-48 -365 c-2 -29 -8 -42 -20 -44 -16 -3 -18 7 -17 115 l0 118 20
-74 c11 -41 19 -93 17 -115z m-84 38 c20 -19 20 -19 0 -49 -24 -37 -11 -59 29
-51 21 4 40 1 52 -8 17 -12 18 -18 9 -45 -10 -26 -9 -32 7 -47 10 -9 19 -25
19 -36 0 -10 5 -27 12 -37 21 -35 -2 -82 -57 -118 -83 -53 -131 -100 -145
-143 -7 -22 -14 -40 -16 -40 -1 0 -33 15 -71 34 -37 19 -94 40 -125 47 -32 7
-58 15 -58 19 0 18 64 147 83 168 11 12 16 22 10 22 -5 0 -20 -11 -32 -24 -28
-29 -44 -25 -87 21 -28 29 -38 33 -83 33 -64 0 -78 21 -37 57 33 28 54 29 110
4 33 -15 51 -18 80 -11 66 15 173 97 227 177 32 46 48 52 73 27z m-608 -100
c31 -20 72 -42 91 -50 l35 -15 -26 -26 c-14 -14 -26 -34 -26 -45 0 -19 39 -40
69 -37 41 4 60 -3 92 -34 19 -19 40 -36 47 -38 10 -3 10 -12 1 -37 l-11 -33
-72 6 c-184 17 -277 44 -333 97 l-22 21 24 32 c28 35 65 135 65 172 0 12 2 23
5 23 2 0 30 -16 61 -36z"/>
<path d="M780 1945 c-85 -16 -217 -77 -281 -130 -51 -43 -109 -115 -109 -135
0 -8 15 8 34 36 61 91 208 183 335 210 86 18 230 18 309 -1 67 -16 148 -53
199 -91 27 -21 32 -22 37 -7 4 9 1 21 -5 27 -9 8 -10 7 -6 -6 4 -12 -9 -8 -48
17 -122 79 -306 110 -465 80z"/>
<path d="M778 1780 c-40 -22 -65 -49 -32 -36 48 19 79 17 113 -6 43 -29 55
-54 18 -37 -30 14 -86 5 -113 -17 -19 -15 -19 -15 1 -8 11 4 41 9 68 12 43 4
50 1 83 -32 20 -20 34 -30 31 -22 -4 11 3 13 31 10 20 -3 43 -1 50 4 17 12 29
92 13 92 -6 0 -10 -8 -9 -17 5 -62 -22 -63 -75 -4 -76 84 -111 96 -179 61z
m154 -55 c28 -30 58 -55 65 -55 7 0 13 -5 13 -11 0 -24 -57 4 -95 47 -23 26
-57 51 -80 59 l-40 14 42 1 c39 0 47 -5 95 -55z"/>
<path d="M1081 1678 c0 -13 4 -32 9 -43 6 -15 8 -9 8 23 0 23 -4 42 -9 42 -5
0 -9 -10 -8 -22z"/>
<path d="M795 1670 c-25 -9 -50 -38 -42 -47 9 -8 170 -33 176 -27 15 15 -66
85 -98 83 -9 0 -25 -4 -36 -9z m65 -41 c0 -10 -4 -19 -9 -19 -5 0 -8 11 -7 24
1 28 16 24 16 -5z m-63 -1 c-3 -8 -6 -5 -6 6 -1 11 2 17 5 13 3 -3 4 -12 1
-19z m33 12 c0 -5 -4 -10 -10 -10 -5 0 -10 5 -10 10 0 6 5 10 10 10 6 0 10 -4
10 -10z m74 -12 c18 -26 17 -29 -11 -22 -13 4 -21 13 -20 25 2 25 12 24 31 -3z
m-124 2 c0 -5 -2 -10 -4 -10 -3 0 -8 5 -11 10 -3 6 -1 10 4 10 6 0 11 -4 11
-10z"/>
<path d="M1071 1510 c-1 -88 5 -104 45 -123 53 -26 44 -42 -25 -42 -50 0 -62
4 -78 24 -13 16 -34 26 -63 30 -54 7 -60 23 -23 57 l28 26 -28 -13 c-27 -12
-45 -49 -32 -68 3 -6 25 -14 48 -18 26 -4 50 -16 67 -33 22 -24 33 -28 82 -27
65 0 86 14 69 45 -6 11 -24 25 -41 30 -29 10 -30 14 -31 69 -2 88 -17 124 -18
43z"/>
<path d="M803 1351 c-46 -43 -53 -54 -53 -88 0 -21 4 -44 8 -51 5 -7 8 9 8 38
-1 48 2 53 47 94 40 37 55 57 45 56 -2 0 -27 -22 -55 -49z"/>
<path d="M810 1285 c0 -3 36 -32 80 -64 97 -72 161 -91 247 -71 49 11 73 30
37 30 -8 0 -36 8 -62 18 -91 36 -118 44 -176 53 -33 5 -73 16 -89 24 -33 16
-37 17 -37 10z m195 -61 c79 -26 128 -48 117 -52 -14 -4 -144 31 -192 52 l-35
15 30 1 c17 0 53 -7 80 -16z m24 -45 c76 -22 88 -30 35 -23 -50 7 -122 32
-131 46 -4 8 0 9 13 3 10 -4 48 -16 83 -26z"/>
<path d="M1186 1233 c20 -37 25 -58 21 -90 -2 -24 -1 -40 4 -37 5 3 9 26 9 52
0 34 -7 58 -25 85 -35 51 -39 46 -9 -10z"/>
<path d="M505 1579 c-25 -64 -61 -135 -101 -195 -76 -112 -99 -157 -108 -206
-9 -51 9 -113 40 -137 34 -27 92 -38 107 -21 9 10 9 11 0 6 -26 -14 -93 14
-113 47 -40 66 -19 145 78 289 27 40 57 89 67 108 21 40 76 202 71 207 -2 2
-20 -42 -41 -98z"/>
<path d="M500 870 c-14 -11 -41 -20 -60 -21 -34 -2 -34 -2 -5 -6 30 -5 95 22
95 39 0 11 -1 10 -30 -12z"/>
</g>
</svg>
