<svg version="1.0" xmlns="http://www.w3.org/2000/svg"
 width="192.000000pt" height="283.000000pt" viewBox="0 0 192.000000 283.000000"
 preserveAspectRatio="xMidYMid meet">

<g transform="translate(0.000000,283.000000) scale(0.100000,-0.100000)"
fill="#000000" stroke="none">
<path d="M835 2783 c-132 -18 -287 -118 -378 -246 -24 -34 -67 -113 -95 -175
-28 -63 -62 -130 -75 -150 -72 -108 -141 -250 -168 -347 -22 -81 -18 -302 9
-398 30 -108 82 -226 140 -312 47 -70 48 -74 30 -89 -29 -25 -19 -94 22 -169
9 -15 7 -17 -20 -12 -16 3 -30 2 -30 -2 0 -17 60 -111 99 -155 22 -25 41 -49
41 -53 0 -8 7 -24 69 -158 55 -120 67 -135 185 -226 56 -44 114 -92 127 -106
39 -42 95 -66 154 -66 65 0 105 17 175 75 30 25 80 65 110 88 87 67 147 127
175 174 24 41 75 197 75 229 0 9 9 15 24 15 63 0 155 217 157 370 1 48 7 75
24 105 37 64 83 223 101 350 21 142 10 245 -34 340 -34 70 -143 190 -232 255
-48 35 -65 55 -89 105 -16 35 -32 82 -36 106 -3 24 -13 64 -21 89 -7 25 -19
71 -25 103 -16 85 -74 154 -155 184 -32 12 -72 22 -87 22 -15 1 -42 8 -60 18
-67 34 -136 46 -212 36z m188 -49 c18 -9 55 -36 84 -60 59 -50 80 -58 38 -14
-16 16 -27 32 -24 34 2 2 26 -7 54 -20 150 -73 210 -231 120 -321 -18 -18 -27
-33 -20 -33 7 0 27 16 45 36 39 45 50 35 50 -44 0 -34 5 -59 15 -68 8 -9 15
-22 15 -30 0 -12 -13 -8 -57 14 -32 16 -114 51 -182 77 -160 62 -237 113 -270
180 -66 134 10 263 123 210 45 -22 69 -65 68 -123 -1 -45 -15 -72 -37 -72 -16
0 -49 30 -60 55 -18 39 -17 -46 0 -91 21 -56 68 -74 140 -54 72 20 103 80 75
145 -7 16 -9 11 -9 -21 -1 -31 -8 -48 -28 -69 -54 -53 -101 -58 -144 -16 -34
34 -39 57 -10 41 30 -15 48 -12 71 13 19 19 21 31 18 85 -5 75 -29 105 -100
127 -41 12 -50 12 -80 -3 -91 -46 -90 -191 2 -296 28 -31 130 -106 145 -106 2
0 28 -11 57 -24 29 -13 71 -29 93 -36 84 -26 294 -151 346 -207 48 -50 69
-102 69 -168 0 -61 -24 -131 -57 -167 -9 -10 -14 -21 -10 -24 11 -11 67 80 83
133 12 40 13 64 6 98 -5 25 -6 42 -1 39 15 -9 30 -84 31 -157 0 -57 3 -67 10
-47 5 14 8 55 5 92 -2 37 -1 65 4 62 19 -12 51 -145 56 -234 4 -70 0 -115 -12
-170 -10 -41 -18 -100 -20 -131 -2 -67 -67 -214 -90 -205 -14 5 -51 -37 -79
-92 -10 -19 -19 -32 -22 -30 -4 4 16 113 34 188 5 19 9 38 10 43 1 4 12 28 26
55 35 69 76 194 81 249 5 43 3 41 -13 -22 -29 -109 -78 -217 -133 -296 -10
-14 -26 -59 -35 -100 -9 -41 -19 -78 -22 -84 -8 -14 -20 31 -21 81 -1 57 -46
206 -83 279 -28 56 -29 60 -12 70 30 17 94 77 106 99 6 12 -10 2 -38 -23 -62
-54 -87 -67 -146 -73 -58 -7 -62 4 -10 21 21 7 49 21 62 32 21 16 16 15 -30
-5 -30 -13 -91 -33 -136 -44 -44 -12 -103 -30 -130 -42 l-49 -20 65 60 c36 32
60 59 54 60 -6 0 -21 -11 -34 -25 -13 -14 -28 -25 -33 -25 -5 0 -2 11 7 25 9
14 23 36 32 50 9 14 12 25 7 25 -4 0 -17 -16 -27 -35 -10 -19 -28 -42 -39 -52
-19 -18 -19 -18 0 22 33 64 57 178 47 222 -7 36 -8 34 -15 -37 -10 -102 -14
-115 -50 -189 -32 -65 -102 -151 -123 -151 -7 0 -10 19 -9 52 1 42 0 47 -6 23
l-8 -30 -5 35 c-4 27 -5 23 -5 -17 0 -29 -2 -55 -5 -59 -11 -10 -85 35 -143
88 -79 72 -129 142 -186 262 -62 131 -79 198 -79 316 0 129 14 208 56 309 88
214 191 329 321 360 65 15 171 13 206 -5z m-363 -48 c0 -2 -20 -28 -45 -57
-52 -61 -113 -176 -145 -272 -24 -75 -36 -84 -21 -16 13 55 14 76 2 64 -27
-30 -47 -285 -32 -400 18 -136 27 -166 81 -275 60 -119 155 -234 240 -292 24
-16 22 -16 -34 -2 -73 19 -154 55 -212 94 -52 35 -64 38 -40 11 13 -14 14 -20
4 -23 -7 -3 3 -15 25 -29 l36 -25 -25 -37 c-13 -20 -29 -37 -34 -37 -22 0 -60
21 -85 47 -53 56 -129 230 -141 326 -4 27 -10 45 -16 39 -16 -16 22 -174 62
-257 24 -51 31 -71 18 -55 -30 35 -76 141 -84 189 -4 23 -10 41 -15 41 -12 0
-11 -6 6 -73 18 -68 54 -142 91 -186 32 -39 107 -84 139 -84 22 1 23 -1 10
-36 -7 -20 -16 -60 -20 -89 -6 -46 -9 -51 -22 -40 -41 34 -130 196 -148 271
-7 27 -25 48 -25 28 0 -6 13 -46 29 -89 29 -81 76 -163 128 -223 23 -26 28
-40 23 -59 l-6 -25 -16 30 c-9 17 -51 68 -94 115 -42 47 -88 109 -102 139 -46
99 -59 288 -31 451 12 67 65 220 77 220 4 0 5 -26 3 -57 -2 -32 2 -89 9 -128
13 -72 46 -165 60 -165 5 0 -2 24 -13 53 -18 44 -21 71 -21 182 1 140 5 160
66 295 89 200 167 318 262 397 52 43 56 46 56 39z m-165 -1176 c3 -5 2 -10 -4
-10 -5 0 -13 5 -16 10 -3 6 -2 10 4 10 5 0 13 -4 16 -10z m860 -92 c33 -69 52
-149 70 -298 4 -30 13 -80 21 -110 16 -61 10 -133 -13 -155 -10 -11 -38 -15
-91 -15 -42 0 -110 -5 -150 -10 -53 -7 -80 -6 -95 2 -19 10 -20 9 -9 -4 11
-14 8 -18 -20 -29 -67 -26 -81 -28 -102 -17 -34 19 -56 19 -86 1 -26 -15 -35
-15 -87 -3 -32 7 -67 15 -78 17 -58 10 -100 27 -122 49 -26 26 -43 33 -23 9 7
-9 11 -18 8 -20 -2 -3 -39 3 -82 12 l-78 17 6 35 c3 20 10 108 16 196 13 201
30 264 85 321 l41 43 59 -19 c33 -10 87 -28 119 -39 33 -12 61 -19 64 -17 2 3
15 1 28 -4 25 -10 96 10 172 49 23 12 42 19 42 15 0 -4 6 -2 13 3 20 17 58 25
147 33 47 4 91 8 97 8 7 1 29 -31 48 -70z m-1057 -190 c46 -52 62 -77 62 -99
0 -16 -3 -29 -7 -29 -8 0 -56 70 -104 153 -16 26 -25 47 -21 46 4 0 35 -32 70
-71z m1230 -101 c-6 -37 -15 -67 -20 -67 -5 0 -7 8 -5 18 3 9 11 41 17 70 17
73 22 60 8 -21z m112 -12 c0 -8 -4 -15 -9 -15 -10 0 -78 -146 -97 -209 -9 -31
-10 -47 -3 -52 7 -4 5 -18 -5 -43 -8 -20 -11 -36 -5 -36 17 0 49 83 49 130 0
60 26 125 50 127 17 2 17 -1 5 -40 -7 -23 -23 -73 -35 -112 -21 -68 -61 -135
-81 -135 -9 0 -4 156 7 210 9 42 94 190 110 190 7 0 14 -7 14 -15z m-1232 -83
l-3 -27 -18 33 c-11 20 -15 41 -11 54 6 21 7 21 21 -6 8 -15 13 -39 11 -54z
m1232 26 c0 -23 -3 -29 -11 -21 -6 6 -8 20 -4 32 9 30 15 26 15 -11z m-1300
-20 c-1 -7 -7 -26 -14 -43 l-13 -30 -7 28 c-4 18 -2 34 5 43 14 17 29 18 29 2z
m1154 -62 c-9 -37 -19 -65 -21 -62 -5 5 16 115 24 129 13 22 12 -7 -3 -67z
m-1106 -18 c6 -16 9 -28 5 -28 -11 0 -32 35 -33 55 0 23 11 11 28 -27z m-15
-68 c-9 -33 -23 -22 -23 18 1 33 2 35 14 19 8 -10 12 -27 9 -37z m-19 -62 c-9
-29 68 -100 138 -126 68 -25 162 -42 239 -42 69 0 124 31 124 70 0 18 9 30 33
43 32 17 34 17 71 -4 24 -13 42 -33 50 -54 7 -20 24 -39 44 -49 17 -8 26 -16
19 -16 -28 0 -70 31 -83 62 -16 39 -36 57 -66 58 -24 0 -33 -10 -48 -55 -5
-16 -25 -38 -43 -48 -63 -37 -303 -15 -396 36 -34 19 -136 129 -136 147 0 4
14 5 30 2 25 -4 29 -8 24 -24z m216 -13 c58 -14 141 -33 185 -43 89 -19 102
-35 63 -72 -21 -21 -30 -22 -128 -17 -81 4 -121 11 -175 31 -38 15 -73 30 -77
34 -4 4 -9 26 -11 50 -6 52 -4 52 143 17z m890 20 c0 -19 -45 -87 -75 -113
-51 -46 -86 -61 -152 -67 l-58 -6 74 21 c40 11 81 25 90 32 40 30 81 73 81 85
0 8 -15 19 -32 26 l-33 12 45 6 c25 3 48 7 53 7 4 1 7 0 7 -3z m-1073 -37 c-3
-8 -6 -5 -6 6 -1 11 2 17 5 13 3 -3 4 -12 1 -19z m977 7 c20 -8 36 -19 36 -24
0 -17 -74 -70 -119 -87 -25 -8 -82 -18 -126 -21 -72 -5 -83 -3 -107 17 -18 14
-28 31 -28 48 0 22 8 30 43 45 23 9 66 17 95 17 33 0 51 4 47 10 -10 16 118
12 159 -5z m96 -38 c0 -16 -44 -202 -55 -237 -22 -65 -71 -126 -161 -200 -63
-52 -74 -58 -55 -32 36 52 17 49 -25 -4 -95 -116 -141 -147 -219 -147 -69 0
-99 18 -184 113 -40 44 -76 79 -79 76 -3 -3 1 -13 9 -22 13 -16 12 -16 -6 -7
-35 19 -129 119 -154 164 l-24 44 26 -24 c37 -34 34 -16 -4 27 -31 35 -84 140
-75 149 2 2 30 -3 62 -12 33 -9 110 -19 172 -22 97 -5 112 -8 112 -23 0 -10 7
-23 15 -30 8 -7 15 -10 15 -6 0 4 13 0 30 -9 38 -20 84 -19 101 2 8 9 29 22
47 30 17 7 32 20 32 28 0 11 8 13 33 8 17 -3 36 -10 42 -14 5 -5 27 -9 50 -9
66 0 77 -19 65 -108 -8 -62 6 -71 15 -9 11 71 3 110 -24 124 -24 11 -23 12 15
18 63 9 163 64 187 101 18 28 37 44 37 31z m-506 -23 c9 -8 16 -20 16 -26 0
-6 11 -25 24 -43 25 -33 24 -42 -9 -62 -68 -42 -73 -44 -115 -31 -56 18 -61
43 -16 80 20 16 36 36 36 44 0 24 19 54 35 54 7 0 21 -7 29 -16z m209 -101
c-7 -2 -21 -2 -30 0 -10 3 -4 5 12 5 17 0 24 -2 18 -5z"/>
<path d="M826 2458 c28 -94 71 -137 243 -253 142 -95 206 -157 248 -243 22
-45 25 -62 21 -120 -6 -76 -23 -116 -81 -185 -22 -26 -38 -50 -35 -53 11 -10
107 120 123 165 8 24 15 68 15 96 0 117 -115 267 -280 364 -41 25 -99 62 -128
84 -55 40 -112 116 -112 149 0 10 -5 18 -11 18 -6 0 -8 -9 -3 -22z"/>
<path d="M566 2383 c-6 -14 -5 -15 5 -6 7 7 10 15 7 18 -3 3 -9 -2 -12 -12z"/>
<path d="M556 2319 c-18 -93 4 -306 39 -366 9 -15 13 -19 9 -8 -24 71 -37 165
-38 277 -1 71 -2 128 -2 128 -1 0 -4 -14 -8 -31z"/>
<path d="M610 1915 c0 -5 5 -17 10 -25 5 -8 10 -10 10 -5 0 6 -5 17 -10 25 -5
8 -10 11 -10 5z"/>
<path d="M780 1529 c0 -18 50 -122 56 -116 3 2 -9 33 -26 68 -16 35 -30 57
-30 48z"/>
<path d="M1697 1351 c-4 -17 -3 -21 5 -13 5 5 8 16 6 23 -3 8 -7 3 -11 -10z"/>
<path d="M1155 1119 c-76 -40 -177 -101 -172 -106 3 -2 55 21 116 51 119 60
155 67 218 41 20 -8 38 -14 40 -11 8 8 -98 46 -129 46 -18 -1 -51 -10 -73 -21z"/>
<path d="M528 1069 c-18 -9 -42 -27 -53 -40 l-20 -23 25 17 c14 9 40 25 58 34
32 17 34 16 92 -12 60 -30 76 -46 43 -43 -37 3 -83 -2 -83 -9 0 -5 25 -6 55
-5 36 3 61 -1 72 -10 12 -9 15 -9 9 0 -5 8 1 12 23 12 16 0 32 4 36 9 3 5 -7
9 -23 9 -16 -1 -51 14 -83 34 -67 43 -106 50 -151 27z"/>
<path d="M1125 1039 c-42 -21 -95 -72 -95 -90 0 -6 12 3 26 20 40 48 109 85
145 77 19 -3 28 -2 24 4 -10 16 -58 11 -100 -11z"/>
<path d="M1302 998 c-7 -7 -44 -12 -90 -12 -86 -1 -124 -18 -144 -62 -6 -13
-15 -24 -20 -24 -22 0 -4 -19 25 -25 112 -23 167 -8 199 54 9 18 26 42 37 52
12 11 21 22 21 24 0 9 -16 5 -28 -7z m-148 -53 c-8 -20 20 -20 36 0 17 21 24
12 10 -14 -6 -12 -19 -21 -29 -21 -22 0 -45 25 -36 40 10 16 25 12 19 -5z
m106 10 c0 -21 -29 -57 -55 -69 -55 -26 -133 1 -118 40 7 19 33 18 33 -1 0 -8
9 -19 21 -25 29 -16 77 5 85 36 3 13 12 24 20 24 8 0 14 -2 14 -5z"/>
<path d="M500 978 c0 -8 10 -20 23 -27 12 -6 30 -25 39 -41 20 -35 73 -70 107
-70 21 0 100 19 110 26 2 2 -12 19 -30 39 -32 33 -40 36 -124 46 -54 7 -97 17
-107 26 -16 14 -18 14 -18 1z m117 -78 c9 -23 17 -30 39 -30 15 0 36 8 46 17
13 11 22 13 29 6 15 -15 -14 -35 -54 -36 -38 -1 -81 22 -97 53 -9 17 -8 20 7
20 11 0 23 -12 30 -30z m33 15 c0 -18 21 -20 38 -3 7 7 12 8 12 2 0 -12 -21
-34 -31 -34 -11 0 -39 30 -39 41 0 5 5 9 10 9 6 0 10 -7 10 -15z"/>
<path d="M782 953 c10 -11 29 -46 43 -79 14 -32 23 -46 20 -29 -8 43 -48 118
-65 123 -12 4 -11 0 2 -15z"/>
<path d="M680 594 c-19 -7 -43 -13 -54 -13 -16 -1 -18 -6 -13 -37 6 -37 35
-90 44 -81 2 3 -3 19 -11 36 -22 42 -21 71 4 71 24 0 70 21 70 32 0 4 -1 7 -2
7 -2 -1 -19 -7 -38 -15z"/>
<path d="M1150 571 c0 -5 6 -11 13 -14 6 -2 -10 -18 -37 -35 -39 -25 -61 -32
-99 -32 -28 0 -61 -7 -77 -17 -24 -14 -35 -15 -67 -5 -21 6 -56 14 -78 17 -55
9 -96 32 -89 50 8 20 -29 20 -46 0 -10 -12 -9 -16 6 -22 10 -3 40 -22 68 -40
57 -37 132 -63 184 -63 45 0 189 69 226 108 16 17 33 29 38 26 12 -8 10 10 -4
24 -14 14 -38 16 -38 3z m-100 -100 c0 -13 -87 -41 -127 -41 -40 0 -123 21
-123 32 0 8 47 2 92 -12 18 -6 45 -3 85 10 68 22 73 23 73 11z"/>
<path d="M1051 396 c-38 -34 -61 -46 -96 -52 -55 -8 -120 14 -155 51 -32 34
-46 31 -21 -4 44 -62 155 -89 225 -56 36 17 113 91 104 100 -3 4 -29 -14 -57
-39z"/>
<path d="M840 628 c0 -14 45 -38 71 -38 9 0 27 9 40 20 29 23 22 25 -17 6 -27
-15 -55 -9 -69 14 -9 14 -25 12 -25 -2z"/>
</g>
</svg>
