<?xml version="1.0" standalone="no"?>
<!DOCTYPE svg PUBLIC "-//W3C//DTD SVG 20010904//EN"
 "http://www.w3.org/TR/2001/REC-SVG-20010904/DTD/svg10.dtd">
<svg version="1.0" xmlns="http://www.w3.org/2000/svg"
 width="216.000000pt" height="259.000000pt" viewBox="0 0 216.000000 259.000000"
 preserveAspectRatio="xMidYMid meet">

<g transform="translate(0.000000,259.000000) scale(0.100000,-0.100000)"
fill="#000000" stroke="none">
<path d="M968 2291 c-38 -24 -119 -119 -130 -153 -2 -6 -49 -17 -103 -25 -137
-19 -224 -46 -329 -101 -109 -57 -200 -143 -241 -226 -25 -52 -27 -64 -22
-131 3 -48 14 -91 28 -120 28 -56 103 -128 151 -145 37 -14 55 -44 39 -64 -25
-32 -9 -148 23 -171 10 -8 15 -36 18 -88 1 -42 0 -77 -3 -77 -12 0 -48 47 -62
82 -22 52 -64 72 -135 63 -98 -12 -102 -20 -42 -87 49 -56 88 -74 129 -60 25
9 32 7 51 -13 l22 -24 -41 -20 c-60 -31 -77 -62 -62 -111 16 -55 48 -74 110
-66 l48 6 6 -92 c7 -100 35 -215 69 -281 27 -54 129 -160 184 -192 49 -29 168
-60 265 -70 91 -10 210 23 293 79 34 23 103 59 154 81 176 73 310 203 364 353
30 84 35 270 13 455 -15 133 -15 148 -1 191 9 26 16 69 16 96 0 40 4 50 20 55
33 11 138 121 165 175 46 90 43 192 -7 255 -35 45 -132 111 -212 144 -92 38
-281 87 -397 103 l-85 11 -18 49 c-19 55 -65 112 -107 134 -48 24 -119 18
-171 -15z m145 -15 c18 -7 42 -24 54 -37 23 -25 57 -98 50 -105 -2 -3 -81 -3
-176 -2 l-171 3 45 57 c68 87 130 113 198 84z m102 -187 c243 -20 485 -86 613
-165 96 -60 125 -99 130 -175 6 -81 -29 -152 -117 -239 l-66 -65 -7 67 c-10
106 -58 198 -104 198 -14 0 -25 8 -29 20 -8 27 -50 54 -71 46 -10 -4 -26 5
-44 24 -28 30 -72 40 -85 20 -4 -6 -16 -3 -32 7 -20 13 -29 14 -44 4 -17 -10
-24 -8 -46 9 -33 25 -58 25 -83 0 -19 -19 -22 -19 -43 -5 -30 21 -77 19 -102
-5 -20 -18 -23 -19 -35 -5 -30 36 -129 6 -145 -45 -5 -16 -10 -18 -25 -10 -50
27 -134 -11 -142 -63 -3 -19 -8 -22 -39 -19 -42 4 -93 -32 -103 -73 -5 -21 -9
-23 -31 -15 -32 12 -68 -1 -92 -35 -10 -14 -39 -48 -66 -74 -26 -27 -47 -56
-47 -65 0 -20 -4 -20 -39 -1 -47 24 -118 111 -137 167 -65 197 155 409 493
474 168 32 348 40 538 23z m87 -290 c11 -14 22 -45 25 -69 5 -38 4 -43 -11
-37 -10 4 -25 7 -34 7 -24 0 -55 86 -41 112 13 25 37 20 61 -13z m-117 -5 c13
-14 28 -38 34 -54 9 -28 9 -29 -18 -24 -20 4 -35 -1 -57 -19 l-30 -26 -12 58
c-7 32 -9 66 -6 75 10 26 61 20 89 -10z m-146 -3 c19 -19 41 -79 41 -113 0
-14 -8 -18 -38 -18 -21 0 -54 -8 -74 -18 l-36 -19 -6 36 c-11 68 -7 97 19 125
29 31 67 34 94 7z m371 -47 c10 -41 13 -114 5 -114 -2 0 -15 5 -28 11 -22 10
-25 19 -30 83 -3 47 -1 73 7 78 16 11 36 -14 46 -58z m77 48 c31 -20 66 -180
46 -208 -4 -6 -26 -9 -48 -6 l-40 4 -2 101 c-1 56 1 105 3 109 6 10 25 10 41
0z m-611 -68 c10 -14 19 -46 22 -72 l4 -47 -37 -2 c-20 -1 -52 -11 -71 -22
-19 -12 -37 -21 -39 -21 -7 0 4 116 14 142 20 52 80 64 107 22z m721 4 c26
-29 47 -97 30 -99 -7 -1 -24 -3 -38 -4 -26 -3 -27 -1 -32 53 -6 79 3 90 40 50z
m-388 -42 c10 -11 3 -17 -35 -30 -26 -9 -49 -15 -50 -13 -5 5 21 34 41 45 26
15 30 15 44 -2z m99 -18 c20 -20 14 -27 -13 -15 -14 7 -25 15 -25 20 0 11 25
8 38 -5z m398 -38 c41 -83 40 -96 -4 -48 -42 46 -62 101 -34 96 9 -2 26 -23
38 -48z m-986 11 c5 -11 10 -43 10 -71 0 -46 -2 -51 -19 -45 -11 3 -35 -1 -54
-9 l-35 -14 -5 35 c-10 59 26 123 69 123 13 0 28 -9 34 -19z m619 -53 c45 -44
101 -88 147 -119 13 -8 40 -48 59 -87 42 -84 113 -162 148 -162 23 0 24 -5 36
-97 31 -243 24 -413 -20 -512 -49 -110 -177 -235 -305 -296 -106 -51 -120 -53
-127 -18 -3 15 -28 63 -56 106 -57 87 -121 209 -121 231 0 7 -7 19 -15 26 -8
7 -15 26 -15 42 0 38 -16 68 -38 68 -22 0 -393 -146 -418 -165 -18 -14 -18
-15 -1 -46 16 -29 16 -34 3 -41 -9 -5 -16 -18 -16 -29 0 -34 59 -169 101 -232
22 -33 38 -61 36 -63 -2 -2 -25 12 -53 30 -59 40 -122 106 -157 167 -32 55
-72 202 -57 207 22 8 71 56 86 84 10 19 14 49 12 81 l-3 50 70 24 c107 36 175
64 175 74 0 12 2 12 -76 -17 -38 -14 -133 -48 -211 -74 l-143 -49 0 39 c0 27
-8 48 -26 70 -15 17 -25 32 -23 34 2 1 102 49 223 106 120 57 214 106 208 108
-5 1 -35 -9 -67 -23 -69 -30 -68 -30 -60 -4 11 32 -13 76 -47 88 -40 14 -96 0
-132 -34 -15 -14 -28 -25 -30 -25 -1 0 1 30 6 68 11 90 43 137 125 179 34 17
87 45 117 63 61 34 256 109 381 146 44 13 96 30 115 39 60 26 114 14 169 -37z
m-270 38 c-10 -10 -119 -42 -119 -35 0 15 54 38 89 39 19 0 32 -2 30 -4z m325
-12 c17 -16 22 -44 8 -44 -14 0 -53 46 -45 53 10 11 20 8 37 -9z m286 -46 c36
-36 64 -94 74 -155 9 -51 -14 -113 -42 -113 -76 0 -164 205 -118 275 22 34 48
32 86 -7z m-792 3 c9 -5 -6 -15 -46 -29 -67 -25 -76 -26 -66 -11 6 10 81 48
94 49 3 0 11 -4 18 -9z m667 -59 c0 -53 6 -79 28 -124 32 -65 87 -118 122
-118 14 0 25 -4 25 -9 0 -16 -24 -19 -51 -5 -63 32 -156 198 -144 258 8 36 16
66 18 66 1 0 2 -30 2 -68z m-975 38 c6 -12 10 -37 8 -57 -3 -33 -6 -36 -36
-38 -18 -2 -44 -13 -58 -26 l-24 -22 0 34 c0 50 18 107 38 118 28 17 61 12 72
-9z m928 -27 c4 -40 -6 -41 -41 -5 -30 31 -26 44 13 40 20 -2 26 -9 28 -35z
m-798 -28 c0 -6 -84 -55 -95 -55 -13 0 28 42 50 51 23 9 45 11 45 4z m-286
-142 l-22 -32 -6 31 c-10 52 -7 74 17 104 l22 29 6 -50 c4 -40 1 -55 -17 -82z
m146 70 c0 -5 -18 -18 -40 -31 -45 -25 -54 -14 -14 17 27 21 54 28 54 14z
m-100 -70 c-1 -5 -12 -21 -26 -38 l-25 -30 11 29 c6 16 13 33 16 37 6 11 24
12 24 2z m-60 -142 c0 -42 -12 -31 -28 25 -16 57 -15 63 8 34 11 -14 20 -41
20 -59z m184 -54 c13 -9 17 -23 14 -52 -4 -47 -23 -57 -31 -16 -4 17 -16 40
-27 51 -11 11 -20 22 -20 25 0 10 47 5 64 -8z m-58 -33 c19 -15 19 -15 -1 -10
-14 4 -31 -4 -54 -24 -29 -27 -32 -35 -27 -65 7 -35 -6 -49 -18 -19 -20 51 16
134 57 134 13 0 32 -7 43 -16z m-247 -19 c35 -18 46 -53 24 -77 -37 -41 -87
-27 -142 39 l-32 38 28 6 c49 11 93 9 122 -6z m247 -52 c-12 -12 -29 15 -21
34 7 17 8 16 18 -5 5 -12 7 -25 3 -29z m-144 -86 c-5 -10 -62 42 -62 56 0 5
15 -4 34 -20 18 -15 31 -32 28 -36z m-52 -104 c27 -34 23 -77 -7 -81 -26 -4
-53 31 -53 69 0 47 28 53 60 12z m201 -90 c14 -36 -13 -106 -51 -133 l-28 -20
-6 23 c-3 12 -6 47 -6 78 0 55 1 56 33 67 46 15 47 15 58 -15z m499 -56 c0
-37 -3 -38 -265 -143 l-109 -44 -25 24 c-14 14 -22 28 -19 31 6 7 398 163 411
164 4 1 7 -14 7 -32z m45 -130 c22 -54 37 -81 129 -232 44 -72 44 -101 -2
-132 -94 -63 -251 -89 -354 -59 -46 13 -65 26 -102 68 -47 54 -111 172 -122
224 -5 28 -3 30 40 42 25 6 117 43 203 82 87 38 164 69 171 67 7 -1 24 -28 37
-60z"/>
<path d="M1058 1566 c-56 -15 -121 -56 -144 -91 -24 -36 -9 -44 24 -12 15 14
52 37 82 51 73 34 139 34 195 1 23 -13 45 -22 48 -18 13 12 -16 46 -56 64 -48
21 -83 23 -149 5z"/>
<path d="M1054 1481 c-52 -24 -108 -90 -124 -146 -17 -61 -6 -111 34 -151 61
-61 151 -55 228 14 100 90 104 233 7 282 -48 25 -92 25 -145 1z m119 -15 c37
-15 62 -41 72 -75 l7 -23 -29 22 c-63 46 -171 34 -230 -25 -39 -39 -43 -29 -8
23 25 38 66 68 113 82 38 12 39 12 75 -4z m42 -106 c29 -27 31 -49 11 -89 -16
-29 -80 -91 -96 -91 -4 0 -16 -3 -25 -7 -15 -5 -16 -3 -6 16 20 37 17 115 -6
154 -12 19 -18 38 -15 42 4 4 31 5 60 3 37 -3 59 -11 77 -28z m-127 -59 c12
-34 12 -48 0 -83 -11 -36 -18 -44 -42 -46 -30 -4 -30 -2 17 49 21 24 20 78 -3
90 -8 4 -28 11 -45 14 l-30 7 25 18 c21 16 28 17 45 6 11 -7 26 -32 33 -55z
m-24 -16 c3 -8 3 -22 0 -30 -8 -21 -34 0 -34 26 0 23 25 25 34 4z"/>
<path d="M482 1254 c-41 -41 -29 -63 13 -24 13 12 42 24 64 27 51 7 49 27 -3
31 -31 3 -42 -2 -74 -34z"/>
<path d="M1132 1103 c-95 -46 -108 -183 -22 -228 90 -47 200 26 200 134 0 36
-6 49 -34 77 -39 39 -88 45 -144 17z m128 -43 c42 -42 21 -123 -41 -156 -39
-20 -72 -18 -103 7 -47 37 -31 124 29 157 33 19 93 14 115 -8z"/>
<path d="M770 1058 c-168 -71 -280 -122 -276 -125 4 -4 315 123 325 133 13 13
-10 9 -49 -8z"/>
<path d="M712 948 c-56 -22 -100 -43 -98 -46 5 -4 226 78 226 84 0 10 -33 0
-128 -38z"/>
</g>
</svg>
