<svg version="1.0" xmlns="http://www.w3.org/2000/svg"
 width="185.000000pt" height="166.000000pt" viewBox="0 0 185.000000 166.000000"
 preserveAspectRatio="xMidYMid meet">

<g transform="translate(0.000000,166.000000) scale(0.100000,-0.100000)"
fill="#000000" stroke="none">
<path d="M801 1580 c-270 -57 -478 -248 -560 -513 -52 -169 -49 -335 10 -511
39 -118 96 -212 183 -304 130 -138 273 -210 460 -233 254 -31 506 68 653 256
195 249 225 576 78 870 -101 203 -293 364 -500 420 -71 20 -261 28 -324 15z
m215 -41 c284 -39 524 -245 621 -534 25 -73 27 -94 27 -240 1 -179 -11 -233
-82 -370 -54 -105 -177 -222 -288 -275 -46 -22 -106 -45 -132 -51 -75 -18
-306 -16 -379 4 -196 52 -396 242 -481 457 -54 136 -71 348 -38 470 80 300
290 498 571 539 85 12 95 12 181 0z"/>
<path d="M984 1280 c-48 -24 -69 -58 -60 -94 10 -42 45 -58 98 -47 51 12 76 7
132 -26 56 -31 110 -31 132 2 21 33 12 66 -32 114 -62 69 -186 92 -270 51z
m183 -25 c84 -35 129 -119 76 -140 -9 -3 -46 9 -82 26 -59 28 -71 31 -128 26
-60 -6 -64 -5 -75 18 -8 19 -8 28 3 41 35 43 138 57 206 29z"/>
<path d="M530 1163 c-72 -37 -120 -106 -120 -169 0 -49 25 -84 61 -84 21 0 68
43 101 92 11 17 33 30 65 37 59 15 83 36 83 71 0 38 -40 71 -92 77 -34 4 -55
-1 -98 -24z m124 -15 c26 -11 42 -40 31 -57 -3 -5 -30 -17 -59 -25 -38 -11
-62 -25 -78 -47 -61 -80 -80 -91 -101 -58 -28 44 34 147 107 180 48 22 66 23
100 7z"/>
<path d="M1078 884 c-60 -32 -76 -121 -33 -173 37 -43 83 -56 130 -37 53 22
74 53 75 106 0 52 -18 83 -60 105 -36 19 -77 19 -112 -1z m115 -34 c52 -41 40
-124 -21 -149 -77 -32 -146 45 -111 123 21 46 89 60 132 26z"/>
<path d="M563 810 c-22 -13 -36 -32 -44 -61 -11 -37 -11 -46 7 -78 10 -20 35
-45 55 -55 98 -53 200 66 142 164 -30 52 -102 66 -160 30z m121 -32 c64 -58 9
-161 -75 -143 -89 20 -74 165 17 165 20 0 43 -9 58 -22z"/>
<path d="M1120 636 c-19 -8 -71 -29 -115 -47 -73 -30 -89 -33 -180 -33 -55 0
-129 4 -165 8 -62 8 -66 7 -92 -19 -22 -22 -28 -37 -28 -72 0 -121 117 -201
305 -211 50 -2 117 1 150 7 140 26 259 114 291 214 15 47 15 56 1 89 -27 64
-99 91 -167 64z m89 -27 c94 -33 55 -183 -67 -255 -178 -107 -489 -75 -557 56
-27 53 -13 126 26 131 5 1 15 2 22 3 6 1 35 -4 62 -11 28 -7 84 -13 125 -13
75 0 116 12 290 78 66 25 59 25 99 11z"/>
<path d="M1045 502 c-101 -45 -210 -54 -311 -27 -70 19 -94 16 -94 -13 0 -41
67 -76 175 -92 68 -11 92 -10 159 4 97 20 174 60 199 104 15 26 17 35 7 47
-18 22 -45 17 -135 -23z m115 9 c0 -22 -54 -70 -102 -91 -104 -46 -302 -36
-364 17 l-29 24 30 -6 c17 -4 76 -9 132 -12 110 -5 165 5 264 52 59 27 69 30
69 16z"/>
</g>
</svg>
