<svg width="300" height="300" viewBox="0 0 300 300" fill="none" xmlns="http://www.w3.org/2000/svg">
<circle cx="150" cy="150" r="150" fill="white"/>
<path d="M54.6772 52.6169C51.8923 53.7387 50.3133 54.8317 48.1887 57.0465C45.8345 59.4914 44.6861 61.1597 43.0784 64.41C41.1835 68.2355 40.6381 70.4216 40.839 73.2692C41.1261 76.7208 42.6765 79.9711 45.5187 82.8762C47.9878 85.4362 50.8587 86.788 56.5433 88.0249C62.5149 89.348 65.5007 90.5848 70.324 93.8064C73.9127 96.1937 77.3866 99.2427 79.0518 101.457C80.7457 103.701 82.6692 106.98 82.6692 107.613C82.6692 107.872 81.7505 109.425 80.6595 111.065C76.4392 117.306 72.2188 126.913 70.1805 134.91C65.874 151.794 65.1562 156.655 65.1562 168.879C65.1849 177.365 65.874 182.197 67.9985 188.295C71.8169 199.311 80.114 211.68 90.4496 221.804C94.7848 226.033 96.2777 227.241 101.187 230.462C103.082 231.67 105.867 233.712 107.36 234.978C112.757 239.465 115.083 241.076 119.418 243.262C123.839 245.477 130.959 247.461 136.787 248.123C140.204 248.497 149.62 248.497 152.865 248.094C160.387 247.203 168.196 244.269 173.564 240.357C174.655 239.551 176.263 238.574 177.125 238.171C177.986 237.768 179.881 236.905 181.287 236.244C188.723 232.821 194.609 228.161 200.839 220.74C209.997 209.867 212.639 205.121 215.998 193.53C217.72 187.576 218.18 184.383 218.926 172.475C219.672 160.653 219.73 158.035 219.213 153.059C218.725 148.4 218.18 145.207 217.462 142.848C217.261 142.129 216.801 140.518 216.457 139.253C215.108 134.306 213.012 129.301 209.882 123.605C209.079 122.11 208.418 120.758 208.418 120.585C208.418 120.01 214.62 113.653 216.801 111.985C219.213 110.144 224.639 107.21 227.367 106.319C229.893 105.456 232.276 105.628 236.41 107.009C244.047 109.54 248.009 109.454 252.631 106.664C257.34 103.816 259.235 99.1276 258.632 91.7641C258.086 84.8034 255.273 77.3824 251.225 72.32C247.148 67.1425 242.956 65.0428 238.133 65.7331C232.85 66.5097 229.348 69.8463 218.955 83.9692C216.428 87.4496 213.557 91.0738 212.581 92.023C209.624 94.9569 203.394 98.351 200.868 98.3798C199.748 98.4085 199.69 98.3798 199.145 96.9704C196.705 90.7862 192.427 82.1571 189.613 77.8426C186.742 73.3842 182.551 68.6382 179.393 66.2508C176.349 63.9498 168.454 61.1309 157.458 58.3696C153.984 57.478 152.721 57.3341 148.128 57.104C138.05 56.615 133.6 57.1903 124.298 60.0954C123.064 60.4694 120.394 61.5624 118.269 62.5116C116.547 63.2882 112.097 65.992 110.317 67.3151C107.963 69.0984 103.168 74.1321 101.445 76.692C99.8951 78.9644 95.9906 85.695 94.4977 88.6864C93.9809 89.6644 93.4641 90.5561 93.2918 90.6424C93.1196 90.7574 92.4593 90.4986 91.7989 90.0671C87.636 87.3058 83.9037 82.0421 80.2289 73.6718C76.9847 66.3371 75.0324 62.5691 73.1663 59.8941C69.0321 54.0838 64.8117 51.6677 58.8688 51.6677C57.4046 51.6677 56.4572 51.8978 54.6772 52.6169ZM63.4336 56.4137C67.3382 58.3409 70.2379 61.85 73.4247 68.4081C74.5156 70.6804 75.5205 72.8377 75.6353 73.2404C75.7502 73.6431 76.7263 75.7716 77.7886 77.9864C81.205 85.1198 85.5402 90.7862 89.617 93.5187L91.2535 94.583L90.6505 95.791C89.7318 97.5744 87.0331 101.889 86.2005 102.867L85.4828 103.73L83.8176 101.227C80.4873 96.165 74.3147 90.9875 67.7401 87.6797C63.9504 85.7813 62.7733 85.3786 56.2562 83.8542C50.7726 82.5886 47.8442 80.5463 45.9207 76.577C44.1119 72.924 44.5139 69.76 47.3849 64.7264C49.8539 60.4406 52.7536 57.6218 56.2275 56.2123C57.8927 55.5508 61.912 55.6371 63.4336 56.4137ZM148.759 61.1597C154.846 61.6199 157.774 62.3102 168.77 65.8194C172.56 66.9987 176.435 68.8971 178.158 70.3928C185.737 77.0084 192.427 89.0891 198.312 106.75C200.925 114.631 202.447 118.083 207.959 128.697C210.428 133.471 211.72 136.865 213.155 142.417C214.275 146.674 214.505 147.882 215.165 153.203C215.825 158.524 215.739 161.084 214.447 178.228C213.758 186.972 213.385 188.841 210.83 196.579C208.533 203.539 206.179 207.825 201.557 213.607C192.944 224.307 188.379 228.247 179.421 232.735C177.297 233.799 175.431 234.748 175.258 234.892C175.115 235.007 174.139 235.553 173.105 236.1C172.072 236.646 169.746 237.969 167.909 239.034C162.454 242.198 156.769 243.809 148.817 244.413C139.17 245.16 128.203 243.204 120.652 239.408C114.882 236.474 105.407 228.593 102.221 224.048C101.417 222.869 100.527 222.61 99.3496 223.243C98.2586 223.789 98.3448 223.847 94.6986 220.395C86.3728 212.514 79.1953 202.935 74.5156 193.559C71.5298 187.547 69.9508 181.852 69.2904 174.776C68.8598 170.375 68.8598 168.966 69.1469 163.702C69.3479 160.365 69.635 156.684 69.7785 155.504C70.2666 151.909 71.7021 145.178 73.3385 138.735C75.4343 130.509 75.8076 129.358 77.2718 126.022C80.6308 118.543 82.095 116.041 90.5644 103.644C92.2009 101.256 95.9044 94.7268 97.7419 91.0738C99.7228 87.1044 103.283 80.9778 105.293 78.1302C107.159 75.4552 111.408 71.342 114.25 69.4436C118.729 66.4809 122.145 64.9852 130.27 62.4828C131.591 62.0514 135.38 61.4186 138.366 61.0734C140.462 60.8433 144.97 60.8721 148.759 61.1597ZM243.014 70.3353C246.172 71.7447 250.277 77.0084 252.287 82.2146C253.722 85.9539 254.268 88.1975 254.641 91.7354C255.244 97.747 253.808 101.515 250.134 103.5C246.889 105.254 243.415 105.139 237.329 103.097C230.841 100.911 228.113 101.199 220.821 104.88C215.911 107.383 213.73 108.994 209.653 113.164C207.873 115.005 206.351 116.443 206.294 116.357C205.633 115.695 201.011 102.982 201.327 102.666C201.384 102.608 202.159 102.378 203.078 102.148C205.174 101.601 209.366 99.5016 212.036 97.6607C215.05 95.5609 217.404 92.9147 222.658 85.7526C231.3 73.9595 234.401 70.738 238.133 69.76C239.396 69.4148 241.521 69.6737 243.014 70.3353Z" fill="black"/>
<path d="M59.9888 60.7282C59.8453 61.1309 59.7017 61.7062 59.7017 61.9938C59.7017 64.036 55.3378 73.0966 53.931 73.9882C52.8113 74.6785 53.3568 71.2269 54.9646 67.2288C56.4575 63.547 54.4765 64.8702 52.6104 68.782C52.0936 69.9038 51.5194 71.6296 51.3471 72.6363C51.0601 74.2759 51.0601 74.506 51.5768 75.1963C52.6391 76.6057 54.1894 76.4044 55.912 74.6498C58.2949 72.1761 61.8549 63.9497 61.654 61.361C61.5965 60.3543 61.453 60.1242 60.9362 60.0666C60.4482 59.9804 60.1898 60.1529 59.9888 60.7282Z" fill="black"/>
<path d="M137.304 77.1522C136.988 77.9864 137.62 78.5041 139.974 79.3958C142.127 80.2299 142.443 80.2587 146.692 80.2875C150.769 80.2875 151.343 80.2299 153.669 79.4821C156.769 78.5041 156.97 78.0152 154.099 78.3316C148.903 78.9068 141.898 78.3028 139.457 77.0947C138.424 76.5482 137.534 76.577 137.304 77.1522Z" fill="black"/>
<path d="M132.337 83.1638C131.906 83.6815 132.136 84.4006 132.825 84.6595C133.543 84.8896 137.304 86.5291 139.227 87.4208C143.448 89.4055 145.745 89.8082 149.735 89.3479C157.63 88.4275 163.602 87.9098 165.124 87.9673C167.306 88.0823 167.65 87.5646 165.727 87.0469C162.741 86.2702 159.468 86.3278 149.764 87.3633C145.802 87.7659 144.108 87.4783 140.29 85.7237C136.213 83.8541 133.485 82.7323 133.055 82.7323C132.854 82.7323 132.538 82.9337 132.337 83.1638Z" fill="black"/>
<path d="M105.637 87.9098C105.637 88.1399 106.269 88.3701 108.594 88.9453C109.858 89.233 109.255 89.4631 106.269 89.837C104.116 90.0959 103.025 90.4123 101.417 91.2177C100.269 91.7929 99.3211 92.4257 99.3211 92.6558C99.3211 92.9722 99.4934 93.001 100.039 92.7996C101.101 92.397 101.216 92.9722 100.182 93.8927C97.7708 96.0499 97.2827 96.7115 95.5027 100.307C93.5791 104.19 92.9188 106.031 93.5217 106.031C93.7227 106.031 94.0385 105.628 94.2969 105.168C94.5553 104.679 94.9285 104.305 95.1295 104.305C95.3591 104.305 96.9669 102.953 98.7182 101.314C102.479 97.747 104.92 96.3376 107.934 96.0787L109.8 95.9061L108.824 96.4526C107.13 97.3443 107.417 97.6607 109.571 97.2292C110.633 97.0279 111.982 96.7115 112.528 96.5389C113.934 96.1362 115.6 96.165 116.346 96.654C116.691 96.8841 117.982 97.3155 119.188 97.6607C122.203 98.4661 124.126 99.444 126.165 101.17C129.667 104.19 131.447 107.009 133.026 112.071C133.687 114.171 133.802 114.948 133.744 117.479C133.687 119.809 133.773 120.528 134.089 120.729C134.318 120.873 134.634 120.93 134.778 120.902C136.156 120.47 137.39 110.259 136.673 105.542C136.127 102.205 134.605 99.2715 131.706 96.0787C130.385 94.6405 128.576 92.5408 127.658 91.419C126.079 89.4631 125.447 88.9453 125.447 89.6357C125.447 89.8082 125.648 90.326 125.878 90.7862C126.136 91.2752 126.28 91.6491 126.222 91.6491C126.136 91.6491 124.959 91.0738 123.552 90.3835C120.853 89.0316 117.437 87.7948 117.15 88.0824C117.064 88.1687 117.207 88.3988 117.466 88.5714C117.724 88.7727 118.183 89.0891 118.471 89.2905C118.901 89.6069 118.7 89.6357 117.179 89.4918C116.174 89.3768 115.025 89.2042 114.652 89.0316C113.992 88.8015 106.872 87.6222 106.039 87.6222C105.81 87.6222 105.637 87.7373 105.637 87.9098Z" fill="black"/>
<path d="M178.56 96.2513C174.885 96.7115 169.517 98.6674 167.22 100.393C166.33 101.055 166.933 101.256 168.225 100.738C169.631 100.192 170.378 100.134 169.373 100.652C164.693 103.155 161.621 105.139 161.621 105.657C161.621 105.973 161.822 106.06 162.425 105.887C163.028 105.743 162.942 105.887 161.851 106.606C159.698 108.044 159.181 109.109 161.047 108.332C162.31 107.814 162.368 108.131 161.277 109.396C158.693 112.33 157.028 114.976 157.229 115.782C157.286 116.069 157.143 117.076 156.913 118.025C156.08 121.189 156.511 125.59 158.004 129.128C159.382 132.493 162.684 136.146 167.794 140.001C169.832 141.554 171.785 143.05 172.1 143.337C173.306 144.402 175.23 147.077 176.149 149.032C176.981 150.73 177.125 151.334 177.125 153.088C177.125 154.785 176.981 155.418 176.263 156.827C175.058 159.272 173.88 160.538 172.014 161.458C170.435 162.235 170.263 162.264 166.33 162.206C164.09 162.149 161.937 162.005 161.564 161.861C161.162 161.717 160.674 161.717 160.473 161.832C159.066 162.695 165.124 165.284 168.54 165.284C170.148 165.284 172.589 164.622 174.11 163.788C174.598 163.529 175.603 162.666 176.407 161.861C177.182 161.056 177.929 160.394 178.072 160.394C178.216 160.394 178.819 160.826 179.421 161.372C181.603 163.357 186.628 165.658 190.676 166.549C194.953 167.499 196.303 166.636 192.628 165.313C188.609 163.817 182.752 160.452 180.857 158.524L179.622 157.288L179.996 155.389C180.627 151.966 179.795 148.659 177.326 145.034C175.488 142.302 174.11 140.979 170.091 137.958C168.052 136.405 165.842 134.651 165.181 134.047C162.626 131.602 160.186 127.517 160.186 125.648C160.186 124.526 161.248 122.858 163.114 121.074C164.722 119.521 168.339 116.961 169.89 116.271C171.124 115.724 171.469 115.235 170.636 115.235C170.378 115.235 169.086 115.753 167.765 116.357C166.445 116.99 165.354 117.364 165.354 117.22C165.354 116.328 168.741 112.071 170.579 110.604C172.301 109.252 172.703 109.195 172.1 110.345C171.842 110.863 171.785 111.208 171.957 111.208C172.129 111.208 173.507 110.115 175.029 108.763C177.814 106.319 179.622 105.341 177.699 107.325C177.153 107.872 176.838 108.332 176.981 108.332C177.125 108.332 178.646 107.555 180.34 106.606C183.068 105.082 185.106 104.305 188.522 103.528C189.757 103.241 191.652 104.938 196.733 110.921L197.824 112.215L197.652 110.345C197.193 105.369 196.044 101.659 194.494 100.106C191.853 97.4593 183.986 95.5609 178.56 96.2513Z" fill="black"/>
<path d="M112.384 106.203C107.934 106.808 106.068 107.613 106.843 108.533C107.015 108.763 107.303 108.792 107.618 108.648C108.451 108.188 112.556 107.469 114.222 107.469C116.49 107.469 118.442 108.447 120.825 110.834C121.887 111.899 123.093 113.251 123.524 113.797C124.528 115.12 124.873 114.689 124.012 113.136C122.433 110.259 120.078 107.872 117.782 106.865C116.576 106.319 113.934 106.002 112.384 106.203Z" fill="black"/>
<path d="M108.422 111.956C106.527 112.416 103.254 113.883 100.671 115.408C97.5699 117.249 96.9383 118.169 98.2876 118.687C98.6896 118.831 100.068 119.78 101.36 120.815C103.972 122.886 106.499 124.296 109.37 125.302C110.805 125.82 112.068 125.993 114.882 126.108C118.987 126.252 121.543 125.907 124.213 124.842C125.964 124.123 126.021 124.123 126.883 124.612C129.179 125.993 128.347 122.858 125.619 119.866C121.916 115.782 119.217 113.164 118.241 112.646C117.15 112.071 113.59 111.496 111.437 111.525C110.69 111.525 109.341 111.726 108.422 111.956ZM112.241 114.056C112.241 114.2 111.81 114.459 111.264 114.66C108.824 115.465 106.958 118.773 107.618 121.045C107.819 121.678 107.905 122.254 107.819 122.34C107.36 122.8 101.187 118.658 101.417 118.025C101.561 117.594 103.829 116.271 105.953 115.35C108.996 114.085 112.241 113.423 112.241 114.056ZM117.753 115.235C119.045 116.098 124.586 122.11 124.586 122.656C124.586 122.8 123.437 123.203 122.031 123.548C119.389 124.152 117.839 124.325 118.04 123.922C120.136 119.866 119.533 116.961 116.088 114.746C115.628 114.459 115.628 114.401 116.002 114.401C116.231 114.372 117.035 114.775 117.753 115.235ZM114.738 116.415C117.466 117.45 118.155 120.988 115.944 122.829C114.25 124.267 112.183 124.152 110.604 122.57C109.8 121.765 109.657 121.419 109.657 120.298C109.657 118.543 110.288 117.392 111.609 116.702C112.815 116.041 113.59 115.983 114.738 116.415Z" fill="black"/>
<path d="M111.609 117.536C111.207 117.824 110.719 118.486 110.518 118.974C110.03 120.183 110.776 121.88 112.125 122.599C113.015 123.088 113.188 123.088 114.307 122.714C115.255 122.369 115.657 122.023 116.059 121.218C116.805 119.694 116.518 118.974 115.255 119.176C114.48 119.291 114.221 119.233 114.078 118.831C113.963 118.543 114.02 118.083 114.193 117.824C114.365 117.536 114.422 117.22 114.336 117.134C113.934 116.76 112.269 116.99 111.609 117.536Z" fill="black"/>
<path d="M175.948 117.076C173.967 117.536 170.952 118.917 168.598 120.47C166.99 121.506 161.908 126.683 161.908 127.258C161.908 127.402 163.487 127.862 165.44 128.294C167.363 128.725 170.234 129.502 171.813 129.991C174.512 130.854 174.943 130.911 179.134 130.911C183.01 130.911 183.871 130.825 185.738 130.221C188.149 129.473 189.901 128.553 190.877 127.489C191.393 126.942 191.738 126.798 192.37 126.942C193.26 127.115 194.063 126.654 194.063 125.993C194.063 125.504 189.154 119.78 187.92 118.831C185.594 117.047 179.709 116.184 175.948 117.076ZM184.704 119.866C185.967 120.326 186.714 120.902 188.465 122.771C189.642 124.066 190.618 125.274 190.618 125.475C190.618 126.165 184.848 128.754 183.24 128.754C182.436 128.754 182.436 128.725 183.182 127.258C184.503 124.67 183.297 121.391 180.426 119.751L178.991 118.946L181.058 119.09C182.206 119.205 183.843 119.521 184.704 119.866ZM179.307 121.448C180.799 122.167 181.718 123.404 181.718 124.756C181.718 127.201 179.938 128.783 177.268 128.783C174.598 128.783 172.818 127.201 172.818 124.785C172.818 122.023 176.522 120.125 179.307 121.448ZM171.67 121.678C171.67 121.736 171.469 122.282 171.21 122.886C170.866 123.72 170.78 124.497 170.895 125.791C171.009 126.798 171.009 127.604 170.952 127.604C170.866 127.604 169.574 127.287 168.052 126.884C166.531 126.482 165.239 126.165 165.153 126.165C164.751 126.165 165.727 125.36 168.282 123.577C170.895 121.765 171.67 121.333 171.67 121.678Z" fill="black"/>
<path d="M175 123.03C174.483 123.634 174.254 124.238 174.254 125.015C174.254 125.791 174.483 126.395 175 127C175.632 127.747 175.948 127.891 177.039 127.891C177.728 127.891 178.56 127.747 178.876 127.604C179.536 127.23 180.283 125.849 180.283 124.986C180.283 124.497 180.168 124.411 179.594 124.555C178.675 124.785 177.871 123.778 178.273 122.973C178.704 122.167 178.646 122.138 177.153 122.138C175.919 122.138 175.632 122.254 175 123.03Z" fill="black"/>
<path d="M97.7708 124.986C97.455 125.475 97.8856 126.022 99.4646 127.172C101.647 128.783 104.575 130.365 106.786 131.113C110.489 132.407 115.485 131.774 122.519 129.128C123.782 128.668 124.213 128.006 123.093 128.265C114.135 130.307 110.834 130.739 108.48 130.192C106.412 129.732 102.881 127.949 100.441 126.165C98.4311 124.698 98.0292 124.526 97.7708 124.986Z" fill="black"/>
<path d="M191.623 131.803C183.326 135.715 179.737 136.837 177.211 136.29C174.971 135.801 171.411 134.334 168.512 132.666C166.473 131.487 165.698 131.17 165.411 131.4C164.779 131.947 166.1 133.011 169.66 134.794C174.11 137.009 176.12 137.671 178.503 137.671C181.977 137.671 185.364 136.376 192.398 132.407C195.643 130.566 196.561 129.905 195.872 129.905C195.729 129.905 193.834 130.768 191.623 131.803Z" fill="black"/>
<path d="M124.729 132.091C121.485 133.759 115.628 136.693 115.255 136.837C113.475 137.527 110.03 139.828 108.48 141.381C105.523 144.344 104.977 146.386 105.437 152.743C105.494 153.491 105.379 153.606 104.058 153.951C103.283 154.152 101.13 154.325 99.2926 154.354C95.1584 154.354 93.0339 154.728 90.9668 155.821C87.8661 157.489 84.909 160.739 85.7416 161.573C86 161.832 86.4019 161.688 87.4642 161.027C88.2106 160.538 90.1055 159.531 91.6558 158.812L94.4406 157.489L98.8045 157.374C101.561 157.288 103.857 157.086 105.006 156.799L106.843 156.31L108.451 158.064C110.547 160.279 112.786 161.372 115.255 161.401C116.404 161.401 116.978 161.286 116.978 161.056C116.978 160.854 116.174 160.221 115.198 159.617C112.155 157.748 110.26 155.907 109.284 153.865C107.819 150.672 107.906 146.904 109.571 144.488C110.69 142.877 112.413 141.755 118.069 138.879C123.38 136.175 124.04 135.744 126.538 133.443C127.974 132.091 128.519 130.768 127.687 130.768C127.486 130.768 126.165 131.372 124.729 132.091Z" fill="black"/>
<path d="M138.223 132.81C135.18 133.155 134.433 133.328 134.031 133.817C133.314 134.679 134.146 134.852 136.902 134.392C139.859 133.874 144.683 133.788 147.008 134.219C154.444 135.542 157.2 135.887 156.913 135.427C156.454 134.679 150.54 133.212 146.147 132.781C142.845 132.465 141.151 132.465 138.223 132.81Z" fill="black"/>
<path d="M122.059 142.043C121.916 142.244 121.542 143.107 121.284 143.941C120.624 145.926 120.825 147.824 121.887 149.953C122.346 150.873 122.748 151.707 122.806 151.823C122.863 151.938 121.973 152.024 120.796 152.024C118.528 151.995 117.466 152.283 116.547 153.203C115.772 153.98 115.829 155.015 116.662 155.993L117.351 156.799L121.37 156.684C127.17 156.569 128.088 156.885 130.873 159.848C135.811 165.14 141.036 167.125 146.405 165.715C147.324 165.485 150.224 164.248 152.807 162.983C158.435 160.25 161.277 159.474 165.21 159.56C169.947 159.646 170.206 159.617 171.124 158.668C171.813 158.007 171.986 157.604 171.899 156.885C171.641 154.124 165.354 154.354 159.411 157.316C158.033 158.007 154.846 159.617 152.348 160.912C146.147 164.133 143.391 164.737 139.888 163.702C136.242 162.609 132.079 159.071 129.983 155.274C129.725 154.785 129.151 154.181 128.691 153.893C125.39 151.851 123.897 150.643 123.236 149.55C122.318 147.968 122.088 145.696 122.691 143.999C122.949 143.28 123.15 142.474 123.15 142.187C123.15 141.611 122.49 141.525 122.059 142.043Z" fill="black"/>
<path d="M91.1101 163.414C90.7656 163.932 90.7082 164.335 90.8804 164.709C91.4259 165.83 103.972 177.595 106.441 179.263C110.891 182.254 118.298 185.217 126.021 187.087C139.572 190.366 157.114 190.481 171.813 187.374C180.225 185.62 185.709 183.635 192.398 179.953C195.7 178.141 201.356 174.459 201.672 173.884C201.786 173.712 201.471 173.136 200.925 172.59L199.949 171.612L196.647 173.855C193.317 176.07 186.972 179.493 183.441 180.96C180.742 182.082 177.728 182.945 171.67 184.383C169.545 184.901 165.382 185.562 161.334 186.051C157.659 186.483 141.266 186.483 137.792 186.051C125.39 184.527 116.949 181.996 109.427 177.566C106.556 175.898 105.092 174.603 95.3879 165.226C92.5743 162.523 91.8853 162.235 91.1101 163.414Z" fill="black"/>
<path d="M130.471 169.224C129.122 172.273 128.49 174.776 128.49 177.278C128.462 178.832 128.577 179.752 128.835 180.011C129.323 180.5 129.754 179.867 129.754 178.716C129.754 177.767 131.62 171.295 132.223 170.145C132.969 168.678 132.653 167.585 131.448 167.585C131.304 167.585 130.845 168.333 130.471 169.224Z" fill="black"/>
<path d="M153.87 169.512C153.87 169.771 154.214 170.835 154.616 171.871C155.477 174.028 156.741 179.781 156.741 181.593C156.741 182.513 156.855 182.83 157.171 182.83C158.951 182.83 158.205 174.661 156.052 170.087C155.621 169.225 155.363 169.023 154.702 169.023C154.128 169.023 153.87 169.167 153.87 169.512Z" fill="black"/>
<path d="M135.61 191.861C135.122 193.156 136.27 193.616 141.237 193.99C146.233 194.393 150.712 193.789 150.712 192.724C150.712 192.408 150.022 192.322 147.352 192.322C144.252 192.322 142.099 192.149 137.448 191.574C136.07 191.401 135.754 191.459 135.61 191.861Z" fill="black"/>
<path d="M138.797 203.166C130.931 203.827 125.217 205.754 122.26 208.746C120.767 210.241 120.538 210.932 121.37 211.68C122.203 212.427 122.834 212.255 124.27 210.932C127.83 207.595 136.328 205.553 143.247 206.358C149.678 207.106 155.822 209.263 157.86 211.421C158.722 212.341 159.325 212.37 159.325 211.507C159.325 210.673 157.947 208.717 156.769 207.883C155.478 206.962 151.946 205.38 149.362 204.546C147.381 203.942 141.237 202.878 140.29 203.022C140.089 203.05 139.429 203.108 138.797 203.166Z" fill="black"/>
<path d="M238.276 75.714C236.123 77.0659 235.262 79.7409 235.463 84.1705C235.635 87.2482 236.525 90.1821 238.075 92.7421C239.855 95.7335 242.87 98.2647 244.593 98.2647C245.54 98.2647 245.77 97.8332 244.937 97.5744C243.272 97.0278 239.769 92.3681 238.391 88.9165C237.674 87.1044 237.587 86.5291 237.587 83.3076C237.559 80.4025 237.645 79.5396 238.075 78.7917C238.707 77.5837 239.597 77.0947 240.171 77.5837C241.004 78.274 243.444 83.7966 244.621 87.6221C244.966 88.7152 245.138 88.9165 245.741 88.9165C247.062 88.9165 246.889 87.5646 244.966 82.5885C243.243 78.1877 242.152 76.3756 240.803 75.6565C239.798 75.1387 239.166 75.1675 238.276 75.714Z" fill="black"/>
</svg>
