<?xml version="1.0" standalone="no"?>
<!DOCTYPE svg PUBLIC "-//W3C//DTD SVG 20010904//EN"
 "http://www.w3.org/TR/2001/REC-SVG-20010904/DTD/svg10.dtd">
<svg version="1.0" xmlns="http://www.w3.org/2000/svg"
 width="230.000000pt" height="259.000000pt" viewBox="0 0 230.000000 259.000000"
 preserveAspectRatio="xMidYMid meet">

<g transform="translate(0.000000,259.000000) scale(0.100000,-0.100000)"
fill="#000000" stroke="none">
<path d="M1067 2403 c-4 -3 -7 -21 -7 -40 0 -41 -10 -41 -55 -2 -58 51 -85 15
-50 -68 20 -47 20 -46 -16 -39 -18 3 -38 1 -45 -5 -11 -9 -20 -7 -40 6 -14 9
-32 14 -40 11 -7 -3 -41 17 -75 44 -61 49 -79 54 -79 22 1 -28 39 -105 68
-136 l27 -28 -30 15 c-55 27 -135 47 -135 33 0 -6 5 -17 12 -24 21 -21 1 -24
-53 -9 -29 9 -56 14 -61 11 -18 -11 -6 -55 24 -89 26 -30 29 -38 17 -46 -8 -5
-19 -9 -25 -9 -16 0 -44 -34 -44 -53 0 -31 -30 -18 -79 34 -57 60 -81 61 -81
4 0 -26 9 -45 35 -74 19 -21 35 -41 35 -44 0 -3 -19 -7 -42 -9 -52 -4 -59 -23
-27 -67 27 -37 20 -48 -36 -57 -24 -3 -50 -13 -57 -21 -11 -13 -7 -20 20 -43
17 -14 32 -29 32 -32 0 -3 -18 -13 -39 -21 -22 -9 -42 -21 -46 -27 -9 -15 12
-39 47 -53 l29 -12 -40 -39 -40 -39 21 -37 22 -37 -27 -46 c-15 -25 -27 -51
-27 -57 0 -13 39 -10 73 5 18 7 18 6 2 -31 -9 -22 -30 -53 -47 -71 -29 -30
-29 -33 -15 -54 12 -16 13 -27 6 -41 -15 -28 -4 -48 27 -48 26 0 26 -1 21 -57
-3 -32 -8 -68 -12 -80 -6 -18 -3 -23 11 -23 9 0 25 7 35 16 23 20 34 13 60
-39 41 -81 183 -283 252 -357 38 -41 77 -86 85 -100 70 -114 147 -222 170
-238 48 -33 115 -54 194 -59 71 -5 153 7 183 27 6 4 33 15 60 25 28 10 60 25
72 32 19 13 133 190 133 207 0 4 27 46 61 93 33 47 63 93 66 102 4 9 19 35 35
58 15 23 28 45 28 50 0 4 15 30 34 56 19 26 37 58 40 71 5 22 10 24 48 19 40
-6 41 -5 34 18 -21 75 -21 77 19 88 54 15 110 57 151 113 58 78 76 137 82 269
5 114 4 117 -18 129 -13 7 -45 10 -75 8 l-52 -4 -18 55 c-10 31 -31 76 -48
100 -24 35 -27 45 -16 52 8 5 19 9 25 9 18 0 64 40 64 55 0 7 -15 19 -34 25
l-35 11 20 42 c20 46 25 92 9 102 -5 3 -23 -1 -39 -10 -49 -25 -54 -21 -46 40
5 45 4 56 -9 61 -11 4 -16 19 -16 44 0 21 -6 43 -14 49 -15 12 -46 5 -46 -11
0 -5 -4 -6 -10 -3 -5 3 -10 23 -10 44 0 24 -8 48 -19 62 -28 35 -51 16 -80
-64 -13 -37 -27 -67 -31 -67 -5 0 -13 14 -19 32 -23 66 -66 87 -94 46 l-14
-23 -52 49 c-44 41 -57 47 -81 43 -38 -8 -93 30 -155 106 -43 52 -71 68 -88
50z m66 -83 c54 -72 110 -110 162 -110 37 0 47 -5 83 -45 44 -49 74 -57 94
-25 18 29 26 25 50 -25 12 -24 28 -47 36 -50 23 -9 50 22 68 79 23 72 31 75
39 14 8 -59 20 -88 37 -88 6 0 20 8 31 18 19 17 20 16 13 -49 -8 -72 4 -99 23
-52 10 26 11 25 7 -15 -3 -29 1 -47 11 -57 17 -18 23 -18 57 -5 22 8 26 7 26
-8 0 -9 -9 -32 -20 -50 -26 -43 -25 -49 11 -68 38 -19 28 -34 -28 -43 -48 -9
-48 -23 3 -96 20 -30 35 -58 31 -61 -3 -4 -22 4 -42 16 -39 24 -55 19 -58 -19
-2 -36 -17 -23 -49 45 -27 58 -33 65 -54 60 -20 -5 -23 -2 -26 26 -3 30 -6 33
-32 30 l-28 -3 23 31 c13 18 28 38 33 45 7 9 0 25 -21 51 -16 22 -33 47 -36
57 -6 15 -1 14 24 -7 31 -27 59 -34 59 -16 0 6 -6 10 -14 10 -8 0 -27 16 -43
37 -34 42 -53 38 -53 -12 0 -24 9 -45 30 -68 17 -19 30 -37 30 -41 0 -13 -49
-5 -101 16 -69 28 -66 24 -41 51 36 38 28 47 -37 47 -49 0 -65 5 -89 25 -29
25 -52 24 -30 -2 6 -7 8 -16 5 -19 -11 -11 -104 8 -153 31 l-49 23 55 2 c116
4 136 25 56 59 -53 22 -110 73 -136 121 -11 20 -10 21 9 15 31 -9 36 15 12 61
-20 39 -34 114 -22 114 4 0 24 -23 44 -50z m-92 -13 c15 -9 32 -30 38 -48 10
-29 9 -31 -10 -26 -12 3 -22 0 -26 -9 -8 -22 63 -121 112 -156 25 -18 43 -34
40 -36 -2 -2 -34 1 -70 7 -36 7 -70 9 -76 5 -7 -4 2 -20 21 -39 l33 -34 -39
-3 c-74 -6 -168 11 -230 42 -59 29 -194 153 -181 167 4 3 41 -11 84 -32 43
-20 94 -44 113 -51 l35 -14 -29 22 c-37 28 -115 111 -138 147 -31 46 -20 54
25 18 110 -89 248 -167 294 -167 23 0 15 8 -46 40 -78 41 -104 60 -83 60 7 0
12 7 12 15 0 13 7 15 35 9 43 -8 54 11 31 55 -9 16 -16 42 -16 57 l0 27 23
-19 c12 -11 34 -28 48 -37z m-445 -151 c27 -2 47 -16 101 -73 72 -74 144 -118
212 -129 23 -4 44 -10 46 -15 3 -4 -32 -20 -77 -35 -64 -20 -113 -28 -213 -33
-133 -7 -190 -24 -225 -66 -22 -27 -7 -25 54 5 79 40 102 38 41 -4 -61 -40
-117 -101 -145 -155 -52 -103 -93 -378 -83 -564 6 -125 6 -126 -16 -120 -11 3
-27 1 -34 -5 -9 -8 -12 6 -12 66 l0 77 -27 -3 c-31 -3 -33 0 -18 29 8 13 7 25
0 39 -9 16 -7 24 11 43 42 44 76 147 49 147 -6 0 -24 -7 -40 -15 -35 -18 -36
-16 -10 27 23 38 25 75 5 101 -12 17 -10 22 20 48 18 16 43 50 55 75 23 49 18
74 -7 37 -9 -13 -26 -23 -39 -23 -37 0 -38 18 0 34 30 12 56 41 56 60 0 4 -14
15 -31 25 l-30 19 28 6 c86 20 103 47 63 99 l-21 26 48 3 c63 4 66 22 14 82
-56 65 -54 90 3 38 67 -62 119 -68 114 -14 -3 22 3 28 39 42 57 21 60 26 31
58 -14 15 -34 40 -44 56 l-18 28 34 -7 c18 -4 48 -8 66 -9z m584 -221 c23 -8
63 -15 89 -15 25 0 77 -3 114 -7 l68 -6 -22 -23 -22 -23 67 -31 c38 -16 73
-30 80 -30 22 0 25 -12 10 -36 -19 -28 -11 -44 22 -44 20 0 24 -5 24 -30 0
-17 9 -39 21 -51 24 -24 42 -73 69 -179 10 -41 28 -102 40 -134 28 -76 28
-162 1 -239 -11 -31 -25 -82 -30 -112 -6 -30 -21 -78 -35 -107 -14 -29 -35
-80 -47 -113 -12 -32 -59 -113 -104 -180 -45 -66 -101 -157 -125 -203 -50 -97
-79 -122 -187 -164 -93 -36 -193 -41 -288 -13 -72 21 -108 55 -181 176 -29 46
-87 123 -130 170 -93 102 -248 327 -263 384 -20 74 -13 345 13 501 26 160 54
230 116 298 72 78 122 103 223 110 102 8 200 35 273 76 76 42 135 49 204 25z
m611 -455 c6 0 7 19 3 51 -4 30 -3 50 2 48 5 -2 26 -10 46 -18 44 -17 48 -31
41 -123 -6 -70 -6 -70 -24 -47 -10 13 -21 20 -25 16 -11 -11 -7 -99 6 -132 15
-38 12 -84 -5 -101 -9 -9 -15 -34 -15 -60 0 -31 -6 -50 -20 -64 -22 -22 -26
-65 -11 -118 10 -35 4 -39 -31 -21 -17 9 -19 17 -13 55 3 25 15 70 26 102 35
102 36 165 1 267 -17 50 -37 117 -45 150 -9 33 -19 69 -23 80 -4 11 11 -4 35
-32 23 -29 46 -53 52 -53z m165 -45 c-27 -25 -51 -43 -53 -41 -3 2 -1 20 2 39
7 37 17 44 70 46 l30 1 -49 -45z m84 -32 c0 -88 -18 -180 -45 -234 -39 -75
-132 -159 -177 -159 -24 0 -23 17 2 30 16 8 20 21 20 57 0 39 2 44 15 33 18
-15 55 -4 55 16 0 10 -6 13 -18 10 -17 -6 -18 -2 -12 44 8 63 40 101 66 79 14
-12 16 -11 13 6 -6 29 -46 31 -75 4 -27 -25 -32 -15 -8 19 8 12 22 22 31 22 9
0 13 6 10 14 -6 15 94 116 114 116 5 0 9 -26 9 -57z m-179 -80 c-9 -16 -10
-14 -11 12 0 21 3 26 11 18 8 -8 8 -16 0 -30z"/>
<path d="M1330 1579 c-25 -11 -61 -35 -80 -53 -66 -62 -158 -119 -182 -113
-12 4 -28 1 -35 -5 -9 -7 -17 -7 -28 2 -23 19 -43 5 -55 -41 -14 -50 -7 -85
20 -99 32 -17 102 20 188 101 98 92 185 149 227 149 50 0 97 -20 135 -56 40
-38 60 -43 60 -16 0 24 -77 98 -122 116 -20 9 -39 20 -43 26 -9 15 -34 11 -85
-11z m116 -25 c51 -27 114 -81 114 -98 0 -6 -12 4 -27 22 -30 34 -96 62 -147
62 -45 0 -121 -47 -216 -135 -111 -102 -188 -140 -203 -101 -8 19 3 85 15 92
5 3 16 0 24 -7 11 -9 18 -9 26 -1 6 6 24 8 42 6 25 -4 42 3 86 36 30 23 69 55
86 72 31 29 117 77 140 78 6 0 33 -12 60 -26z"/>
<path d="M1300 1441 c-75 -23 -166 -102 -201 -175 -10 -22 -14 -33 -7 -22 80
116 181 187 268 186 22 -1 81 -19 145 -45 20 -8 20 -8 1 13 -34 39 -143 62
-206 43z"/>
<path d="M447 1425 c-38 -20 -64 -52 -79 -98 -18 -60 1 -66 56 -18 53 46 72
49 116 23 l30 -19 -39 -12 c-41 -12 -101 -60 -101 -81 0 -7 18 4 39 23 55 50
122 58 217 26 38 -12 84 -33 102 -46 37 -27 42 -20 10 14 l-21 23 21 0 c32 0
56 42 45 77 -7 21 -16 28 -36 28 -14 1 -29 4 -33 8 -4 4 -38 7 -76 7 -56 0
-79 5 -128 30 -67 34 -83 36 -123 15z m136 -47 c52 -26 65 -28 117 -22 32 3
64 3 72 -2 7 -5 22 -8 33 -9 19 0 22 -16 10 -52 -7 -20 -110 -16 -153 6 -85
43 -154 71 -177 71 -15 0 -42 -15 -66 -37 l-40 -36 12 29 c16 37 48 74 74 84
25 11 45 5 118 -32z"/>
<path d="M1313 1346 c-62 -20 -126 -60 -162 -102 -41 -46 -38 -70 9 -66 34 2
213 41 318 69 64 17 66 34 7 75 -49 33 -115 42 -172 24z m83 -31 c10 -40 -3
-72 -31 -77 -29 -6 -30 -3 -10 36 9 16 13 37 10 48 -4 12 -1 18 9 18 9 0 18
-11 22 -25z m92 -20 l24 -22 -47 -12 c-26 -7 -48 -11 -50 -9 -1 2 0 20 3 41 4
33 7 37 26 31 11 -3 32 -16 44 -29z m-138 10 c0 -8 -4 -15 -10 -15 -5 0 -10 7
-10 15 0 8 5 15 10 15 6 0 10 -7 10 -15z m-90 -29 c0 -14 7 -31 15 -39 13 -13
13 -16 -2 -21 -8 -4 -22 -1 -29 5 -14 12 -19 60 -7 72 13 14 23 6 23 -17z
m-55 -78 c-29 -9 -65 -9 -65 0 0 4 14 23 31 42 l32 34 11 -34 c10 -32 9 -36
-9 -42z"/>
<path d="M615 1245 c-5 -2 -27 -6 -47 -10 -81 -13 -129 -95 -75 -129 38 -24
78 -26 197 -8 84 13 116 21 118 32 3 18 -63 89 -93 100 -27 10 -88 19 -100 15z
m8 -54 c-4 -31 -1 -41 16 -53 31 -22 72 -11 85 23 6 16 14 29 18 29 16 0 19
-23 4 -45 -12 -18 -28 -25 -73 -31 -51 -6 -58 -5 -75 16 -26 32 -24 78 5 90
12 5 23 9 24 9 0 1 -1 -16 -4 -38z m-61 0 c-2 -15 3 -42 12 -60 16 -29 16 -31
-2 -31 -42 0 -82 22 -82 44 0 22 32 59 60 69 8 3 15 6 16 6 0 1 -1 -12 -4 -28z
m154 8 c10 -17 -13 -36 -27 -22 -12 12 -4 33 11 33 5 0 12 -5 16 -11z m74 -59
c0 -5 -4 -10 -10 -10 -5 0 -10 5 -10 10 0 6 5 10 10 10 6 0 10 -4 10 -10z"/>
<path d="M1408 1175 c-38 -14 -205 -32 -248 -27 -14 2 -33 11 -42 19 -16 15
-18 15 -18 0 0 -32 38 -40 152 -33 110 7 208 29 208 46 0 12 -6 12 -52 -5z"/>
<path d="M721 1061 c-34 -22 -79 -42 -98 -46 -38 -7 -98 9 -127 34 -16 13 -18
14 -14 1 7 -24 69 -50 122 -50 38 0 64 9 122 41 41 22 74 45 74 50 0 15 -12
11 -79 -30z"/>
<path d="M1106 1073 c-3 -3 -6 -14 -6 -24 0 -10 -23 -35 -53 -57 -28 -21 -58
-46 -66 -55 -19 -24 -56 -21 -118 8 -29 14 -53 27 -53 28 0 1 4 17 9 35 10 34
-3 46 -14 12 -10 -31 -86 -92 -179 -144 -103 -58 -110 -73 -69 -145 43 -77 57
-59 17 21 -23 45 -17 55 55 98 38 22 91 56 117 76 25 20 49 32 53 26 12 -18
111 -62 141 -62 29 0 105 50 170 113 23 22 27 23 58 10 19 -8 75 -22 125 -33
160 -33 172 -42 165 -126 -4 -50 -3 -55 9 -39 13 19 18 91 7 120 -4 8 -19 22
-35 30 -26 14 -144 44 -231 59 -21 4 -50 18 -66 31 -16 13 -32 22 -36 18z"/>
<path d="M1335 915 c-22 -7 -72 -23 -111 -34 -45 -13 -102 -41 -155 -76 -45
-30 -98 -58 -117 -61 -52 -10 -187 11 -264 41 -40 16 -13 -17 63 -78 96 -76
147 -104 221 -117 97 -18 217 20 286 92 32 34 132 211 132 235 0 15 -3 15 -55
-2z m-12 -87 l-28 -53 -3 35 c-3 26 2 39 18 52 38 31 41 20 13 -34z m-63 8
c22 -27 7 -59 -37 -84 l-43 -23 -9 24 c-14 37 -2 68 33 83 39 17 41 17 56 0z
m-126 -52 c22 -58 -22 -104 -101 -104 -38 0 -43 3 -42 23 0 16 17 33 57 59 64
42 77 45 86 22z m-334 -70 c0 -12 -4 -12 -20 -2 -11 7 -20 16 -20 19 0 4 9 5
20 2 11 -3 20 -12 20 -19z m70 -14 c0 -25 -11 -25 -41 0 l-24 19 33 1 c25 0
32 -4 32 -20z m95 -2 c-1 -19 -8 -23 -36 -23 -24 0 -35 5 -37 17 -3 16 3 18
64 27 6 0 10 -9 9 -21z m230 2 c-54 -36 -133 -60 -197 -60 -80 0 -66 14 15 15
60 2 124 24 139 49 3 6 21 12 40 13 l33 3 -30 -20z m25 -20 c-25 -22 -65 -47
-89 -55 -55 -19 -166 -19 -206 0 l-30 14 30 -7 c68 -16 158 -7 222 22 34 16
70 37 79 47 9 11 22 19 28 19 6 -1 -9 -19 -34 -40z"/>
</g>
</svg>
