<svg width="48" height="39" viewBox="0 0 48 39" fill="none" xmlns="http://www.w3.org/2000/svg">
<path d="M4.16667 15.4167L2.36971 17.2136L0.572754 15.4167L2.36971 13.6197L4.16667 15.4167ZM47.375 35.75C47.375 36.4241 47.1072 37.0706 46.6306 37.5472C46.1539 38.0239 45.5074 38.2917 44.8333 38.2917C44.1592 38.2917 43.5128 38.0239 43.0361 37.5472C42.5594 37.0706 42.2917 36.4241 42.2917 35.75H47.375ZM15.078 29.922L2.36971 17.2136L5.96363 13.6197L18.672 26.328L15.078 29.922ZM2.36971 13.6197L15.078 0.911377L18.672 4.50529L5.96363 17.2136L2.36971 13.6197ZM4.16667 12.875H29.5833V17.9583H4.16667V12.875ZM47.375 30.6667V35.75H42.2917V30.6667H47.375ZM29.5833 12.875C34.302 12.875 38.8274 14.7495 42.1639 18.0861C45.5005 21.4226 47.375 25.948 47.375 30.6667H42.2917C42.2917 27.2962 40.9528 24.0638 38.5695 21.6805C36.1862 19.2972 32.9538 17.9583 29.5833 17.9583V12.875Z" fill="white"/>
</svg>
