<svg width="24" height="23" viewBox="0 0 24 23" fill="none" xmlns="http://www.w3.org/2000/svg">
<path d="M1.00411 10.4903C0.990976 10.3377 1.00942 10.184 1.05827 10.039C1.10712 9.89398 1.18531 9.76078 1.28788 9.64786C1.39045 9.53495 1.51515 9.44478 1.65408 9.38309C1.79301 9.32139 1.94313 9.28951 2.09492 9.28947H4.18618C4.47665 9.28947 4.75521 9.40592 4.9606 9.6132C5.16599 9.82047 5.28138 10.1016 5.28138 10.3947V20.8947C5.28138 21.1879 5.16599 21.469 4.9606 21.6763C4.75521 21.8836 4.47665 22 4.18618 22H3.00009C2.72598 22.0001 2.46181 21.8964 2.25975 21.7095C2.0577 21.5225 1.93244 21.2659 1.90873 20.9903L1.00411 10.4903ZM8.56695 10.0493C8.56695 9.58734 8.8517 9.17397 9.26513 8.97723C10.1681 8.54729 11.7063 7.68352 12.4001 6.51581C13.2943 5.01044 13.463 2.29094 13.4904 1.66813C13.4942 1.58081 13.492 1.4935 13.5035 1.40729C13.6519 0.327997 15.7158 1.58855 16.5071 2.9215C16.937 3.64434 16.9917 4.59431 16.9468 5.3365C16.8981 6.13008 16.6675 6.89658 16.4414 7.6581L15.9595 9.28118H21.9047C22.0739 9.28117 22.2409 9.32073 22.3924 9.39675C22.5439 9.47278 22.6759 9.5832 22.778 9.71936C22.8802 9.85551 22.9496 10.0137 22.981 10.1815C23.0124 10.3493 23.0048 10.5222 22.9589 10.6865L20.0183 21.1954C19.9534 21.4271 19.8152 21.6312 19.6248 21.7764C19.4344 21.9217 19.2023 22.0002 18.9636 22H9.66214C9.37168 22 9.09311 21.8836 8.88772 21.6763C8.68234 21.469 8.56695 21.1879 8.56695 20.8947V10.0493Z" stroke="white" stroke-width="2" stroke-linecap="round" stroke-linejoin="round"/>
</svg>
